<svg width="166" height="109" viewBox="0 0 166 109" fill="none" xmlns="http://www.w3.org/2000/svg">
<path d="M46.4932 26.6169C69.5817 24.0189 76.9662 21.4963 92.8068 10.7946C116.329 -5.09195 151.847 -5.62015 162.555 24.0505C170.788 46.8705 163.782 75.4051 146.69 88.6666C117.909 110.999 63.9637 115.621 30.1216 99.1139C0.945824 84.8854 -8.86151 56.9149 8.8246 38.3764C14.8231 32.0886 24.379 29.1047 46.4932 26.6169Z" fill="#FEFEFE"/>
<path d="M32.9468 79.5676C31.9936 80.2117 31.0053 80.5337 29.982 80.5337C29.4073 80.5337 28.9097 80.4283 28.4891 80.2175C28.0826 79.995 27.8794 79.6906 27.8794 79.3041C28.5102 78.7537 28.8256 77.3425 28.8256 75.0706C28.8256 73.6653 28.6924 71.6803 28.4261 69.1157C28.1597 66.551 28.0266 64.5777 28.0266 63.1959C28.0266 62.7743 28.0476 62.1243 28.0896 61.246C28.1317 60.3677 28.1527 59.706 28.1527 59.261C28.1527 58.5935 27.9985 57.7386 27.6901 56.6964C27.3677 55.5955 27.2065 54.8402 27.2065 54.4303C27.2065 53.5988 28.3069 53.1831 30.5077 53.1831H31.1595C31.9585 53.1831 32.7015 53.2944 33.3883 53.5169C34.0892 53.7277 34.699 54.0146 35.2176 54.3776C35.6802 54.7055 36.1078 55.133 36.5002 55.6599C36.9068 56.1752 37.2502 56.7139 37.5305 57.276C37.7688 57.7679 37.9791 58.3476 38.1613 59.0151C38.3576 59.6709 38.5118 60.2857 38.6239 60.8595C38.694 61.328 38.7571 61.8784 38.8132 62.5108C38.8692 63.1314 38.9043 63.6467 38.9183 64.0566V66.8672C38.8482 66.9609 38.8132 67.0663 38.8132 67.1834C38.8132 67.3005 38.8342 67.441 38.8762 67.605L38.9183 67.9563C38.9183 68.7292 38.7781 69.6427 38.4978 70.6966C38.2174 71.7506 37.8179 72.8397 37.2993 73.964C36.6965 75.217 36.0447 76.3178 35.3438 77.2664C34.6429 78.2033 33.8439 78.9703 32.9468 79.5676ZM30.3815 65.1633C30.718 69.5197 30.8862 72.7987 30.8862 75.0004V78.4433C31.9375 77.8695 32.8627 77.0673 33.6617 76.0368C34.4747 74.9945 35.0985 73.8351 35.533 72.5587C36.318 70.1931 36.7105 67.8216 36.7105 65.4443C36.7105 64.1327 36.5633 62.7216 36.269 61.2109C35.9606 59.7353 35.2947 58.3827 34.2714 57.1531C33.7948 56.5792 33.1711 56.1342 32.4001 55.818C31.6431 55.5018 30.7951 55.3438 29.8559 55.3438V55.3789C29.8559 57.6274 30.0311 60.8888 30.3815 65.1633Z" fill="#202020"/>
<path d="M51.4711 78.496C53.1112 78.496 53.9312 78.8122 53.9312 79.4446V79.5676C53.749 79.8721 53.4266 80.118 52.964 80.3054C52.5154 80.481 52.0809 80.5864 51.6604 80.6216C51.1838 80.645 50.7142 80.6567 50.2516 80.6567H48.9059C48.5554 80.6567 48.2821 80.645 48.0859 80.6216C47.9036 80.6098 47.7004 80.5689 47.4761 80.4986C46.9995 80.3581 46.7612 80.0185 46.7612 79.4798V58.5759C46.7612 58.2012 46.6631 57.5922 46.4668 56.7491C46.2706 55.9059 46.1724 55.291 46.1724 54.9046V54.7816C46.649 54.1375 47.0065 53.7159 47.2448 53.5169C47.5952 53.5169 48.1279 53.4642 48.8428 53.3588C49.5577 53.2534 50.0904 53.2007 50.4408 53.2007C50.9034 53.2007 51.345 53.3178 51.7655 53.552C52.2 53.7745 52.4173 54.0497 52.4173 54.3776C52.4173 55.092 51.7655 55.4491 50.4618 55.4491C50.2376 55.4491 50.0343 55.4433 49.8521 55.4316C49.6698 55.4199 49.4596 55.414 49.2213 55.414C48.983 55.414 48.8288 55.4199 48.7587 55.4316C48.7587 56.0054 48.8148 56.995 48.9269 58.4003C49.0391 59.8056 49.0951 60.7951 49.0951 61.369C49.0951 61.7437 49.0601 62.4405 48.99 63.4594C48.9199 64.4899 48.8849 65.1633 48.8849 65.4795C48.8708 65.4795 49.0811 65.4385 49.5157 65.3565C50.0623 65.2277 50.5249 65.1633 50.9034 65.1633C51.2398 65.1633 51.5342 65.2628 51.7865 65.4619C52.0388 65.661 52.165 65.8952 52.165 66.1646C52.165 66.469 52.0529 66.7325 51.8286 66.955C51.6183 67.1658 51.352 67.2712 51.0296 67.2712C50.8614 67.2712 50.7001 67.2654 50.546 67.2537C50.3777 67.242 50.1815 67.2361 49.9572 67.2361C49.5367 67.2361 49.2423 67.3239 49.0741 67.4996V78.6014L51.4711 78.496Z" fill="#202020"/>
<path d="M61.0592 57.8909C61.0732 57.0477 61.0802 56.1635 61.0802 55.2383C60.87 55.0393 60.7648 54.7933 60.7648 54.5006C60.7648 54.2078 60.884 53.9502 61.1223 53.7277C61.3746 53.5051 61.669 53.3939 62.0054 53.3939C63.0427 53.3939 63.5614 54.2488 63.5614 55.9586C63.5614 57.4693 63.6314 59.5479 63.7716 62.1946C63.8978 64.9818 63.9609 67.0721 63.9609 68.4657C64.1151 68.7585 64.2552 69.3733 64.3814 70.3102C64.5076 71.247 64.5706 72.0258 64.5706 72.6465C64.5706 73.1735 64.6758 73.8234 64.886 74.5963C65.0963 75.3693 65.3766 76.1539 65.7271 76.9502C66.1056 77.7817 66.5962 78.4726 67.1989 79.023C67.8157 79.5617 68.4535 79.8311 69.1124 79.8311C69.5189 79.8311 69.8553 79.7257 70.1216 79.5149C70.388 79.2924 70.5702 78.9762 70.6683 78.5663C70.7664 78.1681 70.8295 77.8402 70.8576 77.5826C70.8856 77.3132 70.8996 76.9854 70.8996 76.5989V69.5724C70.8996 68.7526 70.8085 67.6226 70.6263 66.1821C70.444 64.7417 70.3529 63.6116 70.3529 62.7918V62.5459L70.2688 60.4555C70.2688 59.6826 70.2197 58.6579 70.1216 57.3814C70.0095 55.9176 69.9534 54.887 69.9534 54.2898C69.9534 54.0087 70.1216 53.7745 70.458 53.5871C70.7945 53.3998 71.1659 53.3061 71.5725 53.3061L72.6238 54.1492V54.7465C72.6238 55.0158 72.5747 55.373 72.4766 55.818C72.3644 56.345 72.3084 56.7198 72.3084 56.9423C72.3084 59.0502 72.4416 62.0658 72.7079 65.9889C72.9602 70.0057 73.0864 73.1383 73.0864 75.3868C73.0864 76.0426 73.0583 76.6048 73.0023 77.0732C72.9462 77.5416 72.8411 78.0276 72.6869 78.5312C72.5186 79.0816 72.2803 79.5325 71.972 79.8838C71.6776 80.2234 71.2711 80.5103 70.7524 80.7445C70.1917 80.9787 69.5539 81.0958 68.839 81.0958C67.9699 81.0958 67.1779 80.9319 66.463 80.604C65.7481 80.2761 65.1313 79.7959 64.6127 79.1636C64.066 78.5078 63.5964 77.7875 63.2039 77.0029C62.8114 76.2183 62.496 75.3166 62.2577 74.2977C61.9914 73.1735 61.7741 72.1078 61.6059 71.1007C61.4517 70.0818 61.3326 68.9693 61.2484 67.7631C61.1083 65.6551 61.0382 63.354 61.0382 60.8595C61.0382 59.7236 61.0452 58.734 61.0592 57.8909Z" fill="#202020"/>
<path d="M85.9756 64.1971C85.9756 65.134 86.0387 66.51 86.1648 68.3252C86.291 70.1287 86.3541 71.5105 86.3541 72.4708C86.3541 73.1969 86.4172 74.2743 86.5433 75.703C86.6555 77.2254 86.7115 78.3028 86.7115 78.9352C86.7115 80.1063 86.298 80.6918 85.471 80.6918C85.0224 80.6918 84.679 80.5162 84.4407 80.1648C84.2024 79.8018 84.0832 79.3744 84.0832 78.8825C84.0832 78.3321 84.1393 77.3718 84.2514 76.0016C84.3636 74.6315 84.4196 73.677 84.4196 73.1383C84.4196 71.9907 84.3215 70.1228 84.1253 67.5347C83.929 64.9466 83.8309 63.0788 83.8309 61.9311L83.873 60.5609C83.887 60.0808 83.894 59.4894 83.894 58.7867C83.894 57.0418 83.7608 55.9234 83.4945 55.4316L82.3801 55.537C81.7913 55.5955 81.3848 55.6248 81.1605 55.6248C80.7821 55.6248 80.4527 55.5311 80.1723 55.3438C79.8919 55.1564 79.7518 54.9222 79.7518 54.6411C79.7518 54.36 80.0952 54.1141 80.7821 53.9033C81.8194 53.5988 83.5155 53.388 85.8705 53.2709C86.6134 53.2358 87.2092 53.2182 87.6577 53.2182C88.0222 53.2182 88.3446 53.3178 88.6249 53.5169C88.9053 53.7159 89.0455 53.956 89.0455 54.2371C89.0455 54.5181 88.9193 54.7465 88.667 54.9222C88.4287 55.0978 88.1203 55.1857 87.7418 55.1857L86.9639 55.1505L86.2069 55.1154C85.9826 55.1154 85.8354 55.1212 85.7653 55.133C85.9616 56.5734 86.0597 58.0489 86.0597 59.5596L85.9756 64.1971Z" fill="#202020"/>
<path d="M97.9817 56.4153C97.8135 56.8837 97.7294 57.3404 97.7294 57.7855C97.7294 58.7106 97.8766 59.6533 98.171 60.6136C98.4654 61.5622 98.8578 62.4405 99.3485 63.2486L99.6639 63.7755C101.01 65.9889 101.907 67.4937 102.355 68.2901C102.846 69.145 103.238 70.117 103.533 71.2061C103.827 72.2835 103.974 73.3608 103.974 74.4382C103.974 75.1877 103.848 75.9489 103.596 76.7219C103.358 77.4948 103.014 78.2208 102.566 78.9001C102.089 79.6144 101.458 80.1824 100.673 80.604C99.8881 81.0256 99.0261 81.2364 98.0869 81.2364C97.0496 81.2364 96.1665 81.0783 95.4375 80.7621C94.975 80.5747 94.7437 80.3288 94.7437 80.0243C94.7437 79.7432 94.8278 79.5149 94.996 79.3392C95.1642 79.1518 95.4025 79.0582 95.7109 79.0582C96.0473 79.0582 96.4748 79.146 96.9935 79.3217C97.4981 79.509 97.8626 79.6027 98.0869 79.6027C98.6195 79.6027 99.1102 79.4036 99.5587 79.0055C100.021 78.6073 100.386 78.092 100.652 77.4596C100.904 76.8741 101.094 76.2944 101.22 75.7206C101.36 75.1468 101.43 74.6432 101.43 74.2099C101.43 73.191 101.234 72.1136 100.841 70.9777C100.449 69.8418 99.9232 68.7292 99.2644 67.6401L98.6546 66.6388C97.9677 65.5263 97.414 64.5894 96.9935 63.8282C96.573 63.0553 96.2085 62.2414 95.9001 61.3865C95.4796 60.2389 95.2693 59.1263 95.2693 58.049C95.2693 57.1824 95.4445 56.3684 95.795 55.6072C96.1454 54.8343 96.6851 54.1785 97.414 53.6398C98.1429 53.0777 99.0261 52.7966 100.063 52.7966C100.582 52.7966 101.087 52.9196 101.577 53.1655C102.068 53.4115 102.411 53.7218 102.608 54.0965L101.872 54.8695C101.157 54.8695 100.596 54.7524 100.19 54.5181C99.6849 54.565 99.2293 54.7699 98.8228 55.133C98.4303 55.496 98.15 55.9234 97.9817 56.4153Z" fill="#202020"/>
<path d="M119.954 78.1623C120.697 77.7407 121.237 77.5299 121.573 77.5299C121.98 77.5299 122.401 77.7114 122.835 78.0745C122.835 78.5078 122.723 78.9001 122.499 79.2514C122.288 79.6027 122.001 79.8896 121.637 80.1121C121.286 80.3229 120.873 80.4986 120.396 80.6391C119.919 80.7797 119.443 80.8792 118.966 80.9378C118.448 80.9963 117.978 81.0256 117.557 81.0256C116.744 81.0256 116.001 80.8675 115.329 80.5513C114.656 80.2468 114.081 79.8252 113.604 79.2865C113.184 78.8064 112.805 78.1799 112.469 77.4069C112.133 76.6223 111.859 75.8026 111.649 74.9477C111.467 74.2099 111.32 73.3374 111.207 72.3303C111.095 71.3115 111.025 70.3277 110.997 69.3792C110.955 68.536 110.934 67.5874 110.934 66.5334C110.934 65.6551 110.941 64.8939 110.955 64.2498C110.969 63.6057 110.976 62.9324 110.976 62.2297C110.976 60.8947 111.074 59.788 111.27 58.9097C111.186 58.5232 111.144 58.1485 111.144 57.7855C111.144 56.8252 111.439 55.982 112.027 55.2559C112.63 54.5181 113.45 53.9502 114.488 53.552C115.539 53.1538 116.709 52.9547 117.999 52.9547C118.462 52.9547 118.924 53.0309 119.387 53.1831C119.863 53.3353 120.249 53.5461 120.543 53.8155C120.852 54.0731 121.006 54.3717 121.006 54.7114C121.006 54.9573 120.887 55.1564 120.648 55.3086C120.424 55.4492 120.144 55.5194 119.807 55.5194C119.513 55.5194 119.204 55.4784 118.882 55.3965C118.56 55.3145 118.356 55.2091 118.272 55.0803V55.0978H117.684V55.01C116.604 55.01 115.721 55.2032 115.034 55.5897C114.768 55.7536 114.53 55.9761 114.319 56.2572C114.109 56.5383 113.941 56.831 113.815 57.1355C113.717 57.3814 113.632 57.7152 113.562 58.1368C113.506 58.5584 113.471 58.9331 113.457 59.261C113.443 59.4601 113.436 59.8466 113.436 60.4204C113.436 60.7015 113.457 61.1172 113.499 61.6676C113.541 62.2063 113.562 62.6162 113.562 62.8972C113.562 63.1783 113.499 63.594 113.373 64.1444C113.247 64.7066 113.184 65.1281 113.184 65.4092V66.2699C113.184 67.4879 113.219 68.7702 113.289 70.117C113.317 70.8782 113.373 71.5574 113.457 72.1546C113.555 72.7519 113.689 73.4428 113.857 74.2274C114.011 74.9067 114.2 75.4981 114.424 76.0016C114.663 76.5052 114.964 76.9971 115.329 77.4772C116.001 78.3672 116.934 78.8122 118.125 78.8122C118.616 78.8122 119.226 78.5956 119.954 78.1623Z" fill="#202020"/>
<path d="M129.837 57.1004C129.823 56.3626 129.816 55.3028 129.816 53.9209C129.816 53.4876 130.061 53.2709 130.552 53.2709C130.804 53.2709 131.084 53.3353 131.393 53.4642C131.715 53.5813 131.94 53.7101 132.066 53.8506C131.968 54.6587 131.919 55.5604 131.919 56.5558C131.919 57.4927 131.968 58.7223 132.066 60.2447C132.164 61.7906 132.213 63.0261 132.213 63.9512C132.213 64.1971 132.206 64.4196 132.192 64.6187C132.178 64.8178 132.171 65.0462 132.171 65.3038C132.171 65.6786 132.199 65.9889 132.255 66.2348C132.928 66.2114 133.622 66.1646 134.337 66.0943C135.122 66.0357 135.822 65.9947 136.439 65.9713C136.439 64.484 136.411 62.5635 136.355 60.2096C136.299 57.8674 136.271 55.8532 136.271 54.1668V53.2182C136.635 53.2182 136.958 53.2768 137.238 53.3939C137.533 53.4993 137.757 53.634 137.911 53.7979C138.037 53.9384 138.135 54.1434 138.205 54.4127C138.29 54.6821 138.339 54.9339 138.353 55.1681C138.367 55.2969 138.374 55.5663 138.374 55.9761C138.374 58.4705 138.514 62.4229 138.794 67.8333C139.061 72.9861 139.194 76.9385 139.194 79.6906C139.194 80.0185 139.068 80.3171 138.815 80.5864C138.577 80.8558 138.283 80.9904 137.932 80.9904C137.568 80.9904 137.294 80.8792 137.112 80.6567C136.93 80.4342 136.839 80.1473 136.839 79.7959C136.839 75.217 136.713 70.9894 136.46 67.1131C135.717 66.996 135.241 66.9375 135.03 66.9375C133.839 66.9375 132.991 67.0312 132.486 67.2185C132.486 68.4716 132.605 70.4917 132.844 73.2789C133.082 76.0661 133.201 78.1096 133.201 79.4095C133.201 79.6554 133.11 79.8779 132.928 80.077C132.76 80.2644 132.542 80.3581 132.276 80.3581C131.897 80.3581 131.561 79.8077 131.267 78.7068C130.986 77.7231 130.762 76.3647 130.594 74.6315C130.426 72.8866 130.278 70.8313 130.152 68.4657C129.984 65.456 129.879 61.6676 129.837 57.1004Z" fill="#202020"/>
<path d="M34.0051 39.0716C34.2107 39.1496 34.3135 39.2375 34.3135 39.3351C34.3135 39.417 34.2738 39.4912 34.1943 39.5576C34.1149 39.62 34.0144 39.6708 33.893 39.7098C33.4537 39.5888 33.0916 39.5127 32.8066 39.4814C32.8206 39.6493 32.8276 39.8211 32.8276 39.9967C32.8276 40.2309 32.8183 40.5178 32.7996 40.8575C32.7762 41.2791 32.7645 41.566 32.7645 41.7182L32.8066 41.9056L33.0379 41.8939C33.1173 41.89 33.2108 41.888 33.3182 41.888C33.7808 41.888 34.0121 41.9973 34.0121 42.2159C34.0121 42.3018 33.9677 42.3779 33.8789 42.4443C33.7948 42.5067 33.6874 42.538 33.5565 42.538C33.4164 42.538 33.2809 42.5302 33.15 42.5145H32.7856C32.8136 42.819 32.8276 43.1216 32.8276 43.4221C32.8276 43.711 32.8183 44.0721 32.7996 44.5054C32.7762 45.0441 32.7645 45.4071 32.7645 45.5945C32.7645 46.0434 32.7739 46.2679 32.7926 46.2679L33.2622 46.2503L33.8509 46.2386C34.2154 46.2386 34.3976 46.3362 34.3976 46.5314C34.3976 46.6446 34.3369 46.7304 34.2154 46.789C34.0986 46.8475 33.9537 46.8768 33.7808 46.8768H32.5683C32.4375 46.8768 32.3206 46.8397 32.2178 46.7656C32.1197 46.6953 32.0683 46.6094 32.0637 46.5079V46.1917C32.0637 46.1059 32.0613 46.0258 32.0566 45.9517L32.0426 45.6999C32.0426 45.5711 32.0309 45.3154 32.0076 44.9328C31.9842 44.5542 31.9725 44.2985 31.9725 44.1658C31.9725 43.7247 31.9889 43.1411 32.0216 42.415C32.0543 41.6889 32.0707 41.1053 32.0707 40.6642C32.0707 40.5784 32.059 40.4086 32.0356 40.1548C32.0076 39.9323 31.9936 39.7645 31.9936 39.6512C31.9936 39.0852 32.1945 38.8022 32.5963 38.8022C32.7786 38.8022 33.0075 38.8276 33.2832 38.8783C33.5635 38.9252 33.8042 38.9896 34.0051 39.0716Z" fill="#202020"/>
<path d="M38.5188 44.0077C38.5422 44.6401 38.5538 45.0636 38.5538 45.2783V45.8053C38.5492 45.856 38.5468 45.9107 38.5468 45.9692H38.7361C38.8015 45.9692 38.8646 45.9673 38.9253 45.9634C38.986 45.9595 39.0608 45.9575 39.1496 45.9575C39.5421 45.9575 39.7383 46.0571 39.7383 46.2562C39.7383 46.3576 39.6893 46.4455 39.5911 46.5196C39.4977 46.5899 39.3879 46.625 39.2617 46.625H38.6309C38.1824 46.625 37.9044 46.6172 37.7969 46.6016L37.6217 46.6133C37.2806 46.6133 37.11 46.5235 37.11 46.344C37.11 46.2737 37.1381 46.2054 37.1941 46.139C37.2502 46.0688 37.3063 46.0317 37.3623 46.0278H37.7688L37.7829 45.9517L37.7969 45.8697C37.7969 45.5496 37.7805 45.1241 37.7478 44.5932C37.7151 44.0623 37.6988 43.6388 37.6988 43.3226C37.6988 43.022 37.7128 42.577 37.7408 41.9876C37.7642 41.3317 37.7759 40.8867 37.7759 40.6525C37.7759 40.1802 37.7525 39.7508 37.7058 39.3643H37.4324C37.3764 39.3643 37.3226 39.3663 37.2712 39.3702C37.2198 39.3741 37.1637 39.376 37.103 39.376C36.9535 39.376 36.8413 39.3526 36.7666 39.3058C36.6918 39.2589 36.6544 39.175 36.6544 39.054C36.6544 38.8705 36.8904 38.7788 37.3623 38.7788H39.0725C39.2781 38.7788 39.4253 38.8022 39.514 38.8491C39.6075 38.9037 39.6542 38.9642 39.6542 39.0306C39.6542 39.1047 39.6122 39.1731 39.5281 39.2355C39.444 39.298 39.3482 39.3292 39.2407 39.3292H38.5048C38.5422 39.6805 38.5608 40.0514 38.5608 40.4417C38.5608 40.6369 38.5492 41.0175 38.5258 41.5835C38.4978 42.091 38.4837 42.4736 38.4837 42.7312C38.4837 42.9498 38.4954 43.3753 38.5188 44.0077Z" fill="#202020"/>
<path d="M45.3875 44.2243C45.6491 44.9972 45.815 45.4598 45.8851 45.6121C46.0767 43.9179 46.1724 41.89 46.1724 39.5283C46.1724 39.4736 46.1701 39.4209 46.1654 39.3702L46.1514 39.2062C46.1514 38.9681 46.2706 38.8491 46.5089 38.8491C46.6397 38.8491 46.7402 38.8939 46.8102 38.9837C46.8803 39.0735 46.9154 39.1848 46.9154 39.3175V40.2251C46.906 40.9316 46.878 41.769 46.8313 42.7371C46.7892 43.7051 46.7285 44.5698 46.649 45.331C46.5743 46.0883 46.4902 46.5294 46.3967 46.6543C46.1304 46.7207 45.9622 46.7539 45.8921 46.7539C45.7706 46.7539 45.6818 46.7285 45.6258 46.6777C45.5697 46.6231 45.5253 46.5333 45.4926 46.4084C45.4599 46.2952 45.4318 46.2171 45.4085 46.1742L45.4155 46.1508V46.1215C45.4155 45.938 45.2566 45.4442 44.9389 44.6401C44.6212 43.8359 44.2544 42.9693 43.8385 42.0403C43.4273 41.1112 43.1119 40.4359 42.8923 40.0143V46.0512C42.8923 46.0512 42.911 46.0785 42.9484 46.1332C43.0091 46.2152 43.0395 46.2815 43.0395 46.3323C43.0395 46.4338 42.9951 46.5216 42.9063 46.5958C42.8222 46.6699 42.7218 46.707 42.6049 46.707C42.2919 46.707 42.1354 46.463 42.1354 45.9751L42.1073 41.8646C42.1073 41.6148 42.1213 41.242 42.1494 40.7462C42.1774 40.2466 42.1914 39.8738 42.1914 39.6278C42.1914 39.2531 42.3666 38.9584 42.7171 38.7437V38.8198C42.7545 38.8003 42.7895 38.7905 42.8222 38.7905C43.0465 38.7905 43.3269 39.1125 43.6633 39.7566C43.9249 40.2602 44.1679 40.8106 44.3922 41.4079C44.6212 42.0051 44.8828 42.739 45.1772 43.6095L45.3875 44.2243Z" fill="#202020"/>
<path d="M50.2936 40.7696C50.2469 41.281 50.2235 41.687 50.2235 41.9876V42.3096L50.3427 42.3038H50.4899C50.9525 42.3038 51.1838 42.4091 51.1838 42.6199C51.1838 42.7214 51.1324 42.8054 51.0296 42.8717C50.9314 42.9381 50.8146 42.9713 50.6791 42.9713C50.4735 42.9713 50.2843 42.9478 50.1114 42.901V46.2971C50.1114 46.6485 49.9876 46.8241 49.7399 46.8241C49.5857 46.8241 49.4152 46.7636 49.2283 46.6426C49.3077 45.897 49.3685 44.8801 49.4105 43.5919C49.4432 42.3272 49.4759 41.4664 49.5086 41.0097V40.7169C49.546 40.1002 49.5647 39.5576 49.5647 39.0891C49.5647 38.9798 49.6185 38.8939 49.7259 38.8315C49.8381 38.7651 49.9689 38.7319 50.1184 38.7319C50.4502 38.7319 50.8076 38.7554 51.1908 38.8022C51.4384 38.8334 51.6347 38.8861 51.7795 38.9603C51.929 39.0306 52.0038 39.1165 52.0038 39.2179C52.0038 39.4444 51.7608 39.5576 51.2749 39.5576C51.0786 39.4795 50.8286 39.4405 50.5249 39.4405H50.3567V39.581C50.3567 39.8386 50.3357 40.2348 50.2936 40.7696Z" fill="#202020"/>
<path d="M56.9941 46.4318C56.9941 46.1781 56.9427 45.7702 56.8399 45.208L56.7838 44.9504L55.368 44.7747C55.2886 45.005 55.2092 45.3759 55.1297 45.8873C55.069 46.2815 54.9779 46.5411 54.8564 46.666C54.777 46.7441 54.6788 46.7831 54.562 46.7831C54.4452 46.7831 54.3401 46.7519 54.2466 46.6895C54.1532 46.627 54.1064 46.5509 54.1064 46.4611C54.1064 46.4494 54.1134 46.4299 54.1275 46.4025L54.1415 46.3557C54.7816 44.2907 55.2606 42.2647 55.5783 40.2778C55.597 40.106 55.6133 39.944 55.6274 39.7918C55.6507 39.4951 55.6811 39.2589 55.7185 39.0833C55.7559 38.9037 55.8119 38.769 55.8867 38.6792H56.3703C56.5105 38.6792 56.6273 38.7066 56.7207 38.7612C56.8142 38.812 56.8609 38.8861 56.8609 38.9837C56.8609 39.5927 56.959 40.4964 57.1553 41.6948C57.3469 42.9088 57.4426 43.7715 57.4426 44.2829C57.4426 44.3492 57.4683 44.4722 57.5197 44.6518C57.5711 44.8313 57.5968 44.9543 57.5968 45.0207C57.5968 45.1065 57.6436 45.3447 57.737 45.735C57.8258 46.1059 57.8702 46.3537 57.8702 46.4787V46.4904C57.8702 46.666 57.7907 46.7792 57.6319 46.83C57.4169 46.83 57.2557 46.8007 57.1483 46.7422C57.0455 46.6836 56.9941 46.5802 56.9941 46.4318ZM55.4241 44.3297C55.583 44.4156 56.0058 44.48 56.6927 44.523C56.6647 44.4058 56.6507 44.2575 56.6507 44.0779C56.6507 43.6993 56.632 43.3031 56.5946 42.8893C56.5572 42.4716 56.4988 41.9485 56.4194 41.32C56.3539 40.8477 56.3025 40.4339 56.2652 40.0787C55.8306 42.0891 55.5503 43.5061 55.4241 44.3297Z" fill="#202020"/>
<path d="M61.4867 38.8608C61.7391 38.7749 62.0358 38.7319 62.3769 38.7319C62.5217 38.7319 62.6315 38.7612 62.7063 38.8198C62.781 38.8744 62.8184 38.9466 62.8184 39.0364C62.8184 39.1184 62.7881 39.1906 62.7273 39.2531C62.6666 39.3155 62.5941 39.3487 62.51 39.3526H61.8372C61.6503 39.3526 61.4844 39.4541 61.3396 39.6571C61.1947 39.8562 61.0896 40.1158 61.0242 40.4359C60.9027 41.0292 60.8419 41.5094 60.8419 41.8763V41.9349C60.8419 42.2511 60.8326 42.6356 60.8139 43.0884C60.7905 43.6622 60.7788 44.0487 60.7788 44.2477C60.7788 44.521 60.7952 44.7689 60.8279 44.9914C60.8513 45.1397 60.8793 45.2705 60.912 45.3837C60.9494 45.493 61.0031 45.6023 61.0732 45.7116C61.1386 45.8287 61.2181 45.9243 61.3115 45.9985C61.405 46.0727 61.5218 46.1332 61.662 46.18C61.7975 46.2308 61.9563 46.2562 62.1386 46.2562C62.2554 46.2562 62.3582 46.221 62.4469 46.1508C62.5684 46.1508 62.6712 46.1742 62.7553 46.221C62.8394 46.264 62.8815 46.3284 62.8815 46.4142C62.8815 46.7304 62.6175 46.8885 62.0895 46.8885C61.8839 46.8885 61.662 46.8612 61.4237 46.8066C61.1854 46.7558 61.0055 46.6992 60.884 46.6368C60.2485 46.2932 59.9308 45.3544 59.9308 43.8203V43.4983C59.9261 43.3929 59.9238 43.266 59.9238 43.1176V42.8307C59.9238 42.4482 59.9284 42.1496 59.9378 41.9349C59.9471 41.7202 59.9658 41.4586 59.9939 41.1502C60.0219 40.8419 60.0663 40.5881 60.127 40.389C60.1878 40.1899 60.2812 39.9674 60.4074 39.7215C60.5242 39.4951 60.6644 39.3175 60.8279 39.1887C60.9961 39.0599 61.2157 38.9506 61.4867 38.8608Z" fill="#202020"/>
<path d="M67.3531 44.0545L67.3601 43.51V43.4631C67.3601 43.4202 67.3625 43.3831 67.3672 43.3519C67.3765 43.227 67.3812 43.1489 67.3812 43.1176C67.3812 43.1059 67.3672 43.0864 67.3391 43.0591C67.3111 43.0357 67.2971 43.0181 67.2971 43.0064V42.9947C67.227 43.0103 67.1405 43.0181 67.0377 43.0181C66.9349 43.0181 66.7807 43.0005 66.5751 42.9654C66.3883 42.9342 66.2341 42.9147 66.1126 42.9069V44.2829C66.1126 44.4976 66.1266 44.8255 66.1546 45.2666C66.1827 45.7038 66.1967 46.0336 66.1967 46.2562C66.1967 46.3772 66.1593 46.4806 66.0845 46.5665C66.0145 46.6485 65.9163 46.6895 65.7902 46.6895C65.5986 46.6895 65.4678 46.5431 65.3977 46.2503C65.3229 45.9731 65.2855 45.5769 65.2855 45.0616C65.2855 44.8391 65.2925 44.5171 65.3066 44.0955C65.3206 43.6778 65.3276 43.3909 65.3276 43.2348C65.3276 43.1567 65.3299 43.0884 65.3346 43.0298V42.86C65.3346 42.739 65.3252 42.6551 65.3066 42.6082V42.5497L65.3276 42.3213L65.3626 41.847C65.3626 41.5074 65.3463 41.0565 65.3136 40.4944C65.2809 39.9323 65.2645 39.4814 65.2645 39.1418C65.2645 39.0481 65.3042 38.9662 65.3837 38.8959C65.4631 38.8217 65.5589 38.7846 65.671 38.7846C65.9747 38.7846 66.1266 39.0228 66.1266 39.499C66.1266 39.905 66.1172 40.4027 66.0985 40.9921C66.0799 41.5855 66.0705 42.0851 66.0705 42.4911C66.2387 42.5302 66.5004 42.5497 66.8555 42.5497H67.3742C67.3975 42.5106 67.4092 42.4599 67.4092 42.3974C67.4092 41.9876 67.3788 41.4196 67.3181 40.6935C67.2527 39.9089 67.22 39.3409 67.22 38.9896C67.22 38.8998 67.2597 38.8256 67.3391 38.7671C67.4232 38.7046 67.5213 38.6734 67.6335 38.6734C67.7083 38.6734 67.804 38.6949 67.9209 38.7378C68.005 38.7651 68.0493 38.7788 68.054 38.7788C68.054 39.7625 68.1007 41.2791 68.1942 43.3284L68.3274 46.3557C68.3274 46.465 68.2783 46.5528 68.1802 46.6192C68.0821 46.6856 67.9652 46.7187 67.8297 46.7187C67.5027 46.7187 67.3391 46.061 67.3391 44.7455L67.3461 44.2243C67.3508 44.1892 67.3531 44.1326 67.3531 44.0545Z" fill="#202020"/>
<path d="M72.764 39.0716C72.9695 39.1496 73.0723 39.2375 73.0723 39.3351C73.0723 39.417 73.0326 39.4912 72.9532 39.5576C72.8738 39.62 72.7733 39.6708 72.6518 39.7098C72.2126 39.5888 71.8505 39.5127 71.5654 39.4814C71.5795 39.6493 71.5865 39.8211 71.5865 39.9967C71.5865 40.2309 71.5771 40.5178 71.5584 40.8575C71.5351 41.2791 71.5234 41.566 71.5234 41.7182L71.5654 41.9056L71.7967 41.8939C71.8762 41.89 71.9696 41.888 72.0771 41.888C72.5397 41.888 72.771 41.9973 72.771 42.2159C72.771 42.3018 72.7266 42.3779 72.6378 42.4443C72.5537 42.5067 72.4462 42.538 72.3154 42.538C72.1752 42.538 72.0397 42.5302 71.9089 42.5145H71.5444C71.5725 42.819 71.5865 43.1216 71.5865 43.4221C71.5865 43.711 71.5771 44.0721 71.5584 44.5054C71.5351 45.0441 71.5234 45.4071 71.5234 45.5945C71.5234 46.0434 71.5327 46.2679 71.5514 46.2679L72.021 46.2503L72.6098 46.2386C72.9742 46.2386 73.1564 46.3362 73.1564 46.5314C73.1564 46.6446 73.0957 46.7304 72.9742 46.789C72.8574 46.8475 72.7126 46.8768 72.5397 46.8768H71.3271C71.1963 46.8768 71.0795 46.8397 70.9767 46.7656C70.8786 46.6953 70.8272 46.6094 70.8225 46.5079V46.1917C70.8225 46.1059 70.8202 46.0258 70.8155 45.9517L70.8015 45.6999C70.8015 45.5711 70.7898 45.3154 70.7664 44.9328C70.7431 44.5542 70.7314 44.2985 70.7314 44.1658C70.7314 43.7247 70.7477 43.1411 70.7805 42.415C70.8132 41.6889 70.8295 41.1053 70.8295 40.6642C70.8295 40.5784 70.8178 40.4086 70.7945 40.1548C70.7664 39.9323 70.7524 39.7645 70.7524 39.6512C70.7524 39.0852 70.9533 38.8022 71.3552 38.8022C71.5374 38.8022 71.7664 38.8276 72.042 38.8783C72.3224 38.9252 72.563 38.9896 72.764 39.0716Z" fill="#202020"/>
<path d="M76.4927 39.7332C76.3945 39.9948 76.3455 40.2251 76.3455 40.4242C76.3455 40.6545 76.3852 40.8887 76.4646 41.1268C76.5487 41.3649 76.6585 41.5796 76.794 41.7709C77.1445 42.2901 77.4202 42.7136 77.6211 43.0415C77.7519 43.2601 77.857 43.5178 77.9365 43.8144C78.0206 44.1111 78.0626 44.4117 78.0626 44.7162C78.0626 45.2002 77.9295 45.6628 77.6631 46.1039C77.5276 46.3303 77.3384 46.5118 77.0954 46.6485C76.8524 46.7812 76.5814 46.8495 76.2824 46.8534V46.8827C76.1048 46.8593 75.9576 46.8066 75.8408 46.7246C75.724 46.6465 75.6563 46.545 75.6376 46.4201L75.7988 46.2152C75.939 46.2386 76.0277 46.2542 76.0651 46.262C76.1959 46.2893 76.3058 46.303 76.3945 46.303C76.5721 46.303 76.7286 46.2386 76.8641 46.1098C76.9996 45.9809 77.1024 45.8131 77.1725 45.6062C77.2987 45.2276 77.3618 44.8821 77.3618 44.5698C77.3618 44.3043 77.3057 44.0291 77.1935 43.7442C77.0861 43.4553 76.9412 43.1762 76.759 42.9069L76.6258 42.7136C76.4296 42.4326 76.2684 42.1886 76.1422 41.9817C76.0161 41.7709 75.9086 41.5445 75.8198 41.3025C75.703 40.998 75.6446 40.6838 75.6446 40.3598C75.6446 39.9967 75.7427 39.6317 75.939 39.2648C76.0371 39.0735 76.1726 38.9213 76.3455 38.8081C76.523 38.691 76.7216 38.6324 76.9412 38.6324C77.1188 38.6324 77.28 38.6792 77.4248 38.7729C77.5743 38.8627 77.6491 38.974 77.6491 39.1067C77.6491 39.177 77.6141 39.2336 77.544 39.2765C77.4739 39.3155 77.3921 39.3351 77.2987 39.3351C77.1959 39.3351 77.0954 39.3116 76.9973 39.2648C76.8898 39.2687 76.7917 39.3136 76.7029 39.3995C76.6141 39.4853 76.5441 39.5966 76.4927 39.7332Z" fill="#202020"/>
</svg>
