<svg width="185" height="122" viewBox="0 0 185 122" fill="none" xmlns="http://www.w3.org/2000/svg">
<path d="M51.8147 30.0472C77.5459 27.1632 85.7755 24.3629 103.429 12.483C129.644 -5.15253 169.228 -5.73888 181.16 27.1982C190.336 52.5306 182.528 84.2066 163.48 98.9281C131.404 123.719 71.2848 128.85 33.5693 110.525C1.05408 94.7305 -9.87578 63.6807 9.83464 43.1013C16.5197 36.1213 27.1694 32.8089 51.8147 30.0472Z" fill="#EF7407"/>
<path d="M36.7178 88.8273C35.6555 89.5423 34.5541 89.8998 33.4137 89.8998C32.7732 89.8998 32.2186 89.7828 31.75 89.5488C31.2969 89.3018 31.0704 88.9638 31.0704 88.5348C31.7734 87.9238 32.1249 86.3573 32.1249 83.8353C32.1249 82.2753 31.9765 80.0718 31.6797 77.2247C31.3828 74.3777 31.2344 72.1872 31.2344 70.6532C31.2344 70.1852 31.2579 69.4637 31.3047 68.4887C31.3516 67.5137 31.375 66.7792 31.375 66.2852C31.375 65.5442 31.2032 64.5952 30.8595 63.4381C30.5002 62.2161 30.3205 61.3776 30.3205 60.9226C30.3205 59.9996 31.5469 59.5381 33.9995 59.5381H34.726C35.6164 59.5381 36.4444 59.6616 37.2099 59.9086C37.991 60.1426 38.6705 60.4611 39.2486 60.8641C39.7641 61.2281 40.2406 61.7026 40.678 62.2876C41.131 62.8596 41.5138 63.4576 41.8262 64.0817C42.0918 64.6277 42.3261 65.2712 42.5292 66.0122C42.7479 66.7402 42.9198 67.4227 43.0447 68.0597C43.1228 68.5797 43.1931 69.1907 43.2556 69.8927C43.3181 70.5817 43.3572 71.1537 43.3728 71.6087V74.7287C43.2947 74.8327 43.2556 74.9497 43.2556 75.0797C43.2556 75.2097 43.2791 75.3657 43.3259 75.5477L43.3728 75.9377C43.3728 76.7957 43.2166 77.8097 42.9041 78.9798C42.5917 80.1498 42.1465 81.3588 41.5684 82.6068C40.8967 83.9978 40.1703 85.2198 39.3892 86.2728C38.6081 87.3128 37.7176 88.1643 36.7178 88.8273ZM33.8589 72.8372C34.2339 77.6732 34.4213 81.3133 34.4213 83.7573V87.5793C35.593 86.9423 36.6241 86.0518 37.5145 84.9078C38.4206 83.7508 39.1158 82.4638 39.6001 81.0468C40.4749 78.4208 40.9123 75.7882 40.9123 73.1492C40.9123 71.6932 40.7483 70.1267 40.4202 68.4497C40.0765 66.8117 39.3345 65.3102 38.1941 63.9452C37.6629 63.3081 36.9677 62.8141 36.1085 62.4631C35.2649 62.1121 34.3198 61.9366 33.2731 61.9366V61.9756C33.2731 64.4717 33.4684 68.0922 33.8589 72.8372Z" fill="#202020"/>
<path d="M57.3624 87.6378C59.1902 87.6378 60.1041 87.9888 60.1041 88.6908V88.8273C59.901 89.1653 59.5417 89.4383 59.0261 89.6463C58.5262 89.8413 58.042 89.9583 57.5733 89.9973C57.0421 90.0233 56.5188 90.0363 56.0033 90.0363H54.5035C54.113 90.0363 53.8084 90.0233 53.5897 89.9973C53.3866 89.9843 53.16 89.9388 52.9101 89.8608C52.3789 89.7048 52.1134 89.3278 52.1134 88.7298V65.5247C52.1134 65.1087 52.004 64.4327 51.7853 63.4967C51.5666 62.5606 51.4572 61.8781 51.4572 61.4491V61.3126C51.9884 60.5976 52.3867 60.1296 52.6523 59.9086C53.0429 59.9086 53.6365 59.8501 54.4332 59.7331C55.23 59.6161 55.8236 59.5576 56.2142 59.5576C56.7297 59.5576 57.2218 59.6876 57.6905 59.9476C58.1747 60.1946 58.4169 60.5001 58.4169 60.8641C58.4169 61.6571 57.6905 62.0536 56.2376 62.0536C55.9876 62.0536 55.7611 62.0471 55.558 62.0341C55.3549 62.0211 55.1206 62.0146 54.855 62.0146C54.5895 62.0146 54.4176 62.0211 54.3395 62.0341C54.3395 62.6711 54.402 63.7696 54.527 65.3297C54.652 66.8897 54.7144 67.9882 54.7144 68.6252C54.7144 69.0412 54.6754 69.8147 54.5973 70.9457C54.5192 72.0897 54.4801 72.8372 54.4801 73.1882C54.4645 73.1882 54.6988 73.1427 55.1831 73.0517C55.7924 72.9087 56.3079 72.8372 56.7297 72.8372C57.1046 72.8372 57.4327 72.9477 57.7139 73.1687C57.9951 73.3897 58.1357 73.6497 58.1357 73.9487C58.1357 74.2867 58.0107 74.5792 57.7608 74.8262C57.5264 75.0602 57.2296 75.1772 56.8703 75.1772C56.6828 75.1772 56.5032 75.1707 56.3313 75.1577C56.1439 75.1447 55.9252 75.1382 55.6752 75.1382C55.2065 75.1382 54.8785 75.2357 54.691 75.4307V87.7548L57.3624 87.6378Z" fill="#202020"/>
<path d="M68.0479 64.7642C68.0635 63.8282 68.0713 62.8466 68.0713 61.8196C67.837 61.5986 67.7198 61.3256 67.7198 61.0006C67.7198 60.6756 67.8526 60.3896 68.1182 60.1426C68.3994 59.8956 68.7275 59.7721 69.1024 59.7721C70.2584 59.7721 70.8364 60.7211 70.8364 62.6191C70.8364 64.2962 70.9146 66.6037 71.0708 69.5417C71.2114 72.6357 71.2817 74.9562 71.2817 76.5032C71.4535 76.8282 71.6097 77.5107 71.7503 78.5508C71.8909 79.5908 71.9612 80.4553 71.9612 81.1443C71.9612 81.7293 72.0784 82.4508 72.3127 83.3088C72.5471 84.1668 72.8595 85.0378 73.2501 85.9218C73.6719 86.8448 74.2186 87.6118 74.8904 88.2228C75.5778 88.8208 76.2886 89.1198 77.0228 89.1198C77.4758 89.1198 77.8508 89.0028 78.1476 88.7688C78.4444 88.5218 78.6475 88.1708 78.7569 87.7158C78.8662 87.2738 78.9365 86.9098 78.9678 86.6238C78.999 86.3248 79.0146 85.9608 79.0146 85.5318V77.7317C79.0146 76.8217 78.9131 75.5672 78.71 73.9682C78.5069 72.3692 78.4054 71.1147 78.4054 70.2047V69.9317L78.3116 67.6112C78.3116 66.7532 78.2569 65.6157 78.1476 64.1987C78.0226 62.5736 77.9601 61.4296 77.9601 60.7666C77.9601 60.4546 78.1476 60.1946 78.5225 59.9866C78.8975 59.7786 79.3114 59.6746 79.7645 59.6746L80.9361 60.6106V61.2736C80.9361 61.5726 80.8815 61.9691 80.7721 62.4631C80.6471 63.0481 80.5846 63.4641 80.5846 63.7112C80.5846 66.0512 80.733 69.3987 81.0299 73.7537C81.3111 78.2127 81.4517 81.6903 81.4517 84.1863C81.4517 84.9143 81.4204 85.5383 81.3579 86.0583C81.2954 86.5783 81.1783 87.1178 81.0064 87.6768C80.819 88.2878 80.5534 88.7883 80.2097 89.1783C79.8816 89.5553 79.4286 89.8738 78.8506 90.1338C78.2257 90.3938 77.5149 90.5238 76.7182 90.5238C75.7496 90.5238 74.867 90.3418 74.0702 89.9778C73.2735 89.6138 72.5861 89.0808 72.0081 88.3788C71.3988 87.6508 70.8755 86.8513 70.4381 85.9803C70.0007 85.1093 69.6492 84.1083 69.3836 82.9773C69.0868 81.7293 68.8446 80.5463 68.6572 79.4283C68.4853 78.2972 68.3525 77.0622 68.2588 75.7232C68.1026 73.3832 68.0245 70.8287 68.0245 68.0597C68.0245 66.7987 68.0323 65.7002 68.0479 64.7642Z" fill="#202020"/>
<path d="M95.8162 71.7647C95.8162 72.8047 95.8865 74.3322 96.0271 76.3472C96.1677 78.3493 96.238 79.8833 96.238 80.9493C96.238 81.7553 96.3083 82.9513 96.4489 84.5373C96.5739 86.2273 96.6363 87.4233 96.6363 88.1253C96.6363 89.4253 96.1755 90.0753 95.2538 90.0753C94.7539 90.0753 94.3711 89.8803 94.1056 89.4903C93.84 89.0873 93.7072 88.6128 93.7072 88.0668C93.7072 87.4558 93.7697 86.3898 93.8947 84.8688C94.0196 83.3478 94.0821 82.2883 94.0821 81.6903C94.0821 80.4163 93.9728 78.3427 93.7541 75.4697C93.5354 72.5967 93.426 70.5232 93.426 69.2492L93.4729 67.7282C93.4885 67.1952 93.4963 66.5387 93.4963 65.7587C93.4963 63.8217 93.3479 62.5801 93.0511 62.0341L91.8091 62.1511C91.153 62.2161 90.7 62.2486 90.45 62.2486C90.0282 62.2486 89.6611 62.1446 89.3486 61.9366C89.0362 61.7286 88.88 61.4686 88.88 61.1566C88.88 60.8446 89.2627 60.5716 90.0282 60.3376C91.1842 59.9996 93.0745 59.7656 95.699 59.6356C96.527 59.5966 97.1909 59.5771 97.6908 59.5771C98.097 59.5771 98.4563 59.6876 98.7688 59.9086C99.0812 60.1296 99.2374 60.3961 99.2374 60.7081C99.2374 61.0201 99.0968 61.2736 98.8156 61.4686C98.55 61.6636 98.2064 61.7611 97.7846 61.7611L96.9175 61.7221L96.074 61.6831C95.824 61.6831 95.66 61.6896 95.5819 61.7026C95.8006 63.3016 95.9099 64.9397 95.9099 66.6167L95.8162 71.7647Z" fill="#202020"/>
<path d="M109.197 63.1261C109.009 63.6462 108.915 64.1532 108.915 64.6472C108.915 65.6742 109.079 66.7207 109.407 67.7867C109.735 68.8397 110.173 69.8147 110.72 70.7117L111.071 71.2967C112.571 73.7537 113.571 75.4242 114.071 76.3082C114.617 77.2572 115.055 78.3363 115.383 79.5453C115.711 80.7413 115.875 81.9373 115.875 83.1333C115.875 83.9653 115.734 84.8103 115.453 85.6683C115.188 86.5263 114.805 87.3323 114.305 88.0863C113.774 88.8793 113.071 89.5098 112.196 89.9778C111.321 90.4458 110.36 90.6798 109.314 90.6798C108.158 90.6798 107.173 90.5043 106.361 90.1533C105.846 89.9453 105.588 89.6723 105.588 89.3343C105.588 89.0223 105.682 88.7688 105.869 88.5738C106.056 88.3658 106.322 88.2618 106.666 88.2618C107.041 88.2618 107.517 88.3593 108.095 88.5543C108.658 88.7623 109.064 88.8663 109.314 88.8663C109.907 88.8663 110.454 88.6453 110.954 88.2033C111.47 87.7613 111.876 87.1893 112.173 86.4873C112.454 85.8373 112.665 85.1938 112.805 84.5568C112.961 83.9198 113.04 83.3608 113.04 82.8798C113.04 81.7488 112.821 80.5528 112.383 79.2918C111.946 78.0307 111.36 76.7957 110.626 75.5867L109.946 74.4752C109.181 73.2402 108.564 72.2002 108.095 71.3552C107.626 70.4972 107.22 69.5937 106.877 68.6447C106.408 67.3707 106.174 66.1357 106.174 64.9397C106.174 63.9777 106.369 63.0741 106.759 62.2291C107.15 61.3711 107.751 60.6431 108.564 60.0451C109.376 59.4211 110.36 59.1091 111.516 59.1091C112.094 59.1091 112.657 59.2456 113.204 59.5186C113.75 59.7916 114.133 60.1361 114.352 60.5521L113.532 61.4101C112.735 61.4101 112.11 61.2801 111.657 61.0201C111.095 61.0721 110.587 61.2996 110.134 61.7026C109.696 62.1056 109.384 62.5801 109.197 63.1261Z" fill="#202020"/>
<path d="M133.684 87.2673C134.512 86.7993 135.114 86.5653 135.489 86.5653C135.942 86.5653 136.41 86.7668 136.895 87.1698C136.895 87.6508 136.77 88.0863 136.52 88.4763C136.285 88.8663 135.965 89.1848 135.559 89.4318C135.168 89.6658 134.707 89.8608 134.176 90.0168C133.645 90.1728 133.114 90.2833 132.583 90.3483C132.005 90.4133 131.481 90.4458 131.013 90.4458C130.107 90.4458 129.279 90.2703 128.529 89.9193C127.779 89.5813 127.138 89.1133 126.607 88.5153C126.139 87.9823 125.717 87.2868 125.342 86.4288C124.967 85.5578 124.662 84.6478 124.428 83.6988C124.225 82.8798 124.061 81.9113 123.936 80.7933C123.811 79.6623 123.733 78.5703 123.702 77.5172C123.655 76.5812 123.631 75.5282 123.631 74.3582C123.631 73.3832 123.639 72.5382 123.655 71.8232C123.67 71.1082 123.678 70.3607 123.678 69.5807C123.678 68.0987 123.788 66.8702 124.006 65.8952C123.913 65.4662 123.866 65.0502 123.866 64.6472C123.866 63.5812 124.194 62.6451 124.85 61.8391C125.522 61.0201 126.436 60.3896 127.592 59.9476C128.763 59.5056 130.068 59.2846 131.505 59.2846C132.02 59.2846 132.536 59.3691 133.051 59.5381C133.583 59.7071 134.012 59.9411 134.34 60.2401C134.684 60.5261 134.856 60.8576 134.856 61.2346C134.856 61.5076 134.723 61.7286 134.457 61.8976C134.208 62.0536 133.895 62.1316 133.52 62.1316C133.192 62.1316 132.848 62.0861 132.489 61.9951C132.13 61.9041 131.903 61.7871 131.81 61.6441V61.6636H131.153V61.5661C129.95 61.5661 128.966 61.7806 128.201 62.2096C127.904 62.3916 127.638 62.6386 127.404 62.9506C127.17 63.2626 126.982 63.5877 126.842 63.9257C126.732 64.1987 126.639 64.5692 126.56 65.0372C126.498 65.5052 126.459 65.9212 126.443 66.2852C126.428 66.5062 126.42 66.9352 126.42 67.5722C126.42 67.8842 126.443 68.3457 126.49 68.9567C126.537 69.5547 126.56 70.0097 126.56 70.3217C126.56 70.6337 126.49 71.0952 126.35 71.7062C126.209 72.3302 126.139 72.7982 126.139 73.1102V74.0657C126.139 75.4177 126.178 76.8412 126.256 78.3363C126.287 79.1813 126.35 79.9353 126.443 80.5983C126.553 81.2613 126.701 82.0283 126.889 82.8993C127.06 83.6533 127.271 84.3098 127.521 84.8688C127.787 85.4278 128.123 85.9738 128.529 86.5068C129.279 87.4948 130.318 87.9888 131.645 87.9888C132.192 87.9888 132.872 87.7483 133.684 87.2673Z" fill="#202020"/>
<path d="M144.698 63.8867C144.682 63.0676 144.674 61.8911 144.674 60.3571C144.674 59.8761 144.948 59.6356 145.494 59.6356C145.776 59.6356 146.088 59.7071 146.432 59.8501C146.791 59.9801 147.041 60.1231 147.182 60.2791C147.072 61.1761 147.018 62.1771 147.018 63.2822C147.018 64.3222 147.072 65.6872 147.182 67.3772C147.291 69.0932 147.346 70.4647 147.346 71.4917C147.346 71.7647 147.338 72.0117 147.322 72.2327C147.307 72.4537 147.299 72.7072 147.299 72.9932C147.299 73.4092 147.33 73.7537 147.393 74.0267C148.142 74.0007 148.916 73.9487 149.712 73.8707C150.587 73.8057 151.368 73.7602 152.056 73.7342C152.056 72.0832 152.025 69.9512 151.962 67.3382C151.9 64.7382 151.868 62.5021 151.868 60.6301V59.5771C152.274 59.5771 152.634 59.6421 152.946 59.7721C153.274 59.8891 153.524 60.0386 153.696 60.2206C153.837 60.3766 153.946 60.6041 154.024 60.9031C154.118 61.2021 154.173 61.4816 154.188 61.7416C154.204 61.8846 154.212 62.1836 154.212 62.6386C154.212 65.4077 154.368 69.7952 154.68 75.8012C154.977 81.5213 155.125 85.9088 155.125 88.9638C155.125 89.3278 154.985 89.6593 154.704 89.9583C154.438 90.2573 154.11 90.4068 153.719 90.4068C153.313 90.4068 153.009 90.2833 152.806 90.0363C152.603 89.7893 152.501 89.4708 152.501 89.0808C152.501 83.9978 152.36 79.3048 152.079 75.0017C151.251 74.8717 150.72 74.8067 150.486 74.8067C149.158 74.8067 148.213 74.9107 147.65 75.1187C147.65 76.5097 147.783 78.7523 148.049 81.8463C148.314 84.9403 148.447 87.2088 148.447 88.6518C148.447 88.9248 148.346 89.1718 148.142 89.3928C147.955 89.6008 147.713 89.7048 147.416 89.7048C146.994 89.7048 146.619 89.0938 146.291 87.8718C145.979 86.7798 145.729 85.2718 145.541 83.3478C145.354 81.4108 145.19 79.1292 145.049 76.5032C144.862 73.1622 144.745 68.9567 144.698 63.8867Z" fill="#202020"/>
<path d="M37.8973 43.873C38.1264 43.9597 38.2409 44.0572 38.2409 44.1655C38.2409 44.2565 38.1967 44.3389 38.1082 44.4125C38.0196 44.4819 37.9077 44.5382 37.7723 44.5815C37.2828 44.4472 36.8792 44.3627 36.5616 44.328C36.5772 44.5144 36.585 44.705 36.585 44.9C36.585 45.16 36.5746 45.4785 36.5538 45.8555C36.5277 46.3235 36.5147 46.642 36.5147 46.811L36.5616 47.019L36.8193 47.006C36.9079 47.0017 37.012 46.9995 37.1318 46.9995C37.6473 46.9995 37.9051 47.1209 37.9051 47.3635C37.9051 47.4589 37.8556 47.5434 37.7567 47.617C37.6629 47.6864 37.5432 47.721 37.3973 47.721C37.2411 47.721 37.0901 47.7124 36.9443 47.695H36.5381C36.5694 48.033 36.585 48.3689 36.585 48.7026C36.585 49.0232 36.5746 49.4241 36.5538 49.9051C36.5277 50.5031 36.5147 50.9061 36.5147 51.1141C36.5147 51.6124 36.5251 51.8616 36.5459 51.8616L37.0693 51.8421L37.7254 51.8291C38.1316 51.8291 38.3347 51.9374 38.3347 52.1541C38.3347 52.2797 38.267 52.3751 38.1316 52.4401C38.0014 52.5051 37.84 52.5376 37.6473 52.5376H36.296C36.1502 52.5376 36.02 52.4964 35.9054 52.4141C35.7961 52.3361 35.7388 52.2407 35.7336 52.1281V51.7771C35.7336 51.6817 35.731 51.5929 35.7258 51.5106L35.7102 51.2311C35.7102 51.0881 35.6971 50.8042 35.6711 50.3796C35.6451 49.9592 35.632 49.6754 35.632 49.5281C35.632 49.0384 35.6503 48.3905 35.6867 47.5845C35.7232 46.7785 35.7414 46.1307 35.7414 45.641C35.7414 45.5457 35.7284 45.3572 35.7023 45.0755C35.6711 44.8285 35.6555 44.6422 35.6555 44.5165C35.6555 43.8882 35.8794 43.574 36.3272 43.574C36.5303 43.574 36.7855 43.6022 37.0927 43.6585C37.4052 43.7105 37.6733 43.782 37.8973 43.873Z" fill="#202020"/>
<path d="M42.9276 49.3526C42.9536 50.0546 42.9666 50.5247 42.9666 50.7631V51.3481C42.9614 51.4044 42.9588 51.4651 42.9588 51.5301H43.1697C43.2426 51.5301 43.3129 51.5279 43.3806 51.5236C43.4483 51.5192 43.5316 51.5171 43.6306 51.5171C44.068 51.5171 44.2867 51.6276 44.2867 51.8486C44.2867 51.9612 44.232 52.0587 44.1227 52.1411C44.0185 52.2191 43.8961 52.2581 43.7555 52.2581H43.0525C42.5526 52.2581 42.2428 52.2494 42.123 52.2321L41.9278 52.2451C41.5476 52.2451 41.3575 52.1454 41.3575 51.9461C41.3575 51.8681 41.3888 51.7922 41.4513 51.7186C41.5138 51.6406 41.5763 51.5994 41.6387 51.5951H42.0918L42.1074 51.5106L42.123 51.4196C42.123 51.0642 42.1048 50.5919 42.0684 50.0026C42.0319 49.4132 42.0137 48.9431 42.0137 48.592C42.0137 48.2584 42.0293 47.7644 42.0605 47.11C42.0866 46.382 42.0996 45.888 42.0996 45.628C42.0996 45.1037 42.0736 44.627 42.0215 44.198H41.7169C41.6544 44.198 41.5945 44.2002 41.5372 44.2045C41.4799 44.2089 41.4174 44.211 41.3497 44.211C41.1831 44.211 41.0581 44.185 40.9748 44.133C40.8915 44.081 40.8498 43.9879 40.8498 43.8535C40.8498 43.6499 41.1128 43.548 41.6387 43.548H43.5446C43.7738 43.548 43.9378 43.574 44.0367 43.626C44.1409 43.6867 44.193 43.7539 44.193 43.8275C44.193 43.9099 44.1461 43.9857 44.0524 44.055C43.9586 44.1244 43.8519 44.159 43.7321 44.159H42.9119C42.9536 44.549 42.9744 44.9607 42.9744 45.394C42.9744 45.6107 42.9614 46.0332 42.9354 46.6615C42.9041 47.2249 42.8885 47.6495 42.8885 47.9355C42.8885 48.1782 42.9015 48.6506 42.9276 49.3526Z" fill="#202020"/>
<path d="M50.5824 49.5931C50.874 50.4511 51.0589 50.9646 51.137 51.1336C51.3505 49.2529 51.4572 47.0017 51.4572 44.38C51.4572 44.3194 51.4546 44.2609 51.4494 44.2045L51.4338 44.0225C51.4338 43.7582 51.5666 43.626 51.8322 43.626C51.978 43.626 52.0899 43.6758 52.168 43.7755C52.2462 43.8752 52.2852 43.9987 52.2852 44.146V45.1535C52.2748 45.9379 52.2435 46.8674 52.1915 47.942C52.1446 49.0167 52.0769 49.9766 51.9884 50.8216C51.9051 51.6622 51.8113 52.1519 51.7072 52.2906C51.4104 52.3642 51.2229 52.4011 51.1448 52.4011C51.0094 52.4011 50.9105 52.3729 50.848 52.3166C50.7855 52.2559 50.736 52.1562 50.6996 52.0176C50.6631 51.8919 50.6319 51.8052 50.6058 51.7576L50.6136 51.7316V51.6991C50.6136 51.4954 50.4366 50.9472 50.0825 50.0546C49.7284 49.1619 49.3196 48.1999 48.8562 47.1685C48.3979 46.1372 48.0464 45.3875 47.8017 44.9195V51.6211C47.8017 51.6211 47.8225 51.6514 47.8642 51.7121C47.9318 51.8031 47.9657 51.8767 47.9657 51.9331C47.9657 52.0457 47.9162 52.1432 47.8173 52.2256C47.7236 52.3079 47.6116 52.3491 47.4814 52.3491C47.1325 52.3491 46.9581 52.0782 46.9581 51.5366L46.9268 46.9735C46.9268 46.6962 46.9425 46.2824 46.9737 45.732C47.0049 45.1774 47.0206 44.7635 47.0206 44.4905C47.0206 44.0745 47.2158 43.7474 47.6064 43.509V43.5935C47.648 43.5718 47.6871 43.561 47.7236 43.561C47.9735 43.561 48.2859 43.9185 48.6609 44.6335C48.9525 45.1925 49.2233 45.8035 49.4732 46.4665C49.7284 47.1295 50.02 47.9442 50.3481 48.9106L50.5824 49.5931Z" fill="#202020"/>
<path d="M56.0501 45.758C55.9981 46.3257 55.972 46.7764 55.972 47.11V47.4675L56.1048 47.461H56.2688C56.7844 47.461 57.0421 47.578 57.0421 47.812C57.0421 47.9247 56.9849 48.0179 56.8703 48.0915C56.7609 48.1652 56.6308 48.202 56.4797 48.202C56.2506 48.202 56.0397 48.176 55.847 48.124V51.8941C55.847 52.2841 55.709 52.4791 55.4331 52.4791C55.2612 52.4791 55.0711 52.4119 54.8629 52.2776C54.9514 51.4499 55.0191 50.3211 55.0659 48.8911C55.1024 47.487 55.1388 46.5315 55.1753 46.0245V45.6995C55.217 45.0149 55.2378 44.4125 55.2378 43.8925C55.2378 43.7712 55.2977 43.6758 55.4174 43.6065C55.5424 43.5329 55.6882 43.496 55.8549 43.496C56.2246 43.496 56.6229 43.522 57.0499 43.574C57.3259 43.6087 57.5447 43.6672 57.7061 43.7495C57.8727 43.8275 57.956 43.9229 57.956 44.0355C57.956 44.2869 57.6852 44.4125 57.1437 44.4125C56.925 44.3259 56.6464 44.2825 56.3079 44.2825H56.1204V44.4385C56.1204 44.7245 56.097 45.1644 56.0501 45.758Z" fill="#202020"/>
<path d="M63.5175 52.0436C63.5175 51.7619 63.4602 51.3091 63.3457 50.6851L63.2832 50.3991L61.7053 50.2041C61.6168 50.4597 61.5283 50.8714 61.4398 51.4391C61.3721 51.8767 61.2705 52.1649 61.1351 52.3036C61.0466 52.3902 60.9372 52.4336 60.8071 52.4336C60.6769 52.4336 60.5597 52.3989 60.4556 52.3296C60.3514 52.2602 60.2993 52.1757 60.2993 52.0761C60.2993 52.0631 60.3072 52.0414 60.3228 52.0111L60.3384 51.9591C61.0518 49.6667 61.5856 47.4177 61.9397 45.212C61.9605 45.0214 61.9787 44.8415 61.9943 44.6725C62.0204 44.3432 62.0542 44.081 62.0959 43.886C62.1375 43.6867 62.2 43.5372 62.2834 43.4375H62.8223C62.9785 43.4375 63.1087 43.4678 63.2129 43.5285C63.317 43.5849 63.3691 43.6672 63.3691 43.7755C63.3691 44.4515 63.4784 45.4547 63.6972 46.785C63.9107 48.1327 64.0174 49.0904 64.0174 49.6581C64.0174 49.7317 64.046 49.8682 64.1033 50.0676C64.1606 50.2669 64.1892 50.4034 64.1892 50.4771C64.1892 50.5724 64.2413 50.8367 64.3455 51.2701C64.4444 51.6817 64.4939 51.9569 64.4939 52.0956V52.1086C64.4939 52.3036 64.4053 52.4292 64.2283 52.4856C63.9888 52.4856 63.8091 52.4531 63.6893 52.3881C63.5748 52.3231 63.5175 52.2082 63.5175 52.0436ZM61.7678 49.7101C61.9449 49.8054 62.4161 49.8769 63.1816 49.9246C63.1504 49.7946 63.1348 49.6299 63.1348 49.4306C63.1348 49.0102 63.1139 48.5704 63.0723 48.111C63.0306 47.6474 62.9655 47.0667 62.877 46.369C62.8041 45.8447 62.7468 45.3854 62.7051 44.991C62.2209 47.2227 61.9084 48.7957 61.7678 49.7101Z" fill="#202020"/>
<path d="M68.5244 43.639C68.8056 43.5437 69.1362 43.496 69.5164 43.496C69.6778 43.496 69.8002 43.5285 69.8835 43.5935C69.9668 43.6542 70.0085 43.7344 70.0085 43.834C70.0085 43.925 69.9746 44.0052 69.9069 44.0745C69.8392 44.1439 69.7585 44.1807 69.6648 44.185H68.9149C68.7066 44.185 68.5218 44.2977 68.3603 44.523C68.1989 44.744 68.0818 45.0322 68.0089 45.3875C67.8735 46.0462 67.8058 46.5792 67.8058 46.9865V47.0515C67.8058 47.4025 67.7953 47.8294 67.7745 48.3321C67.7485 48.9691 67.7355 49.3981 67.7355 49.6191C67.7355 49.9224 67.7537 50.1976 67.7901 50.4446C67.8162 50.6092 67.8474 50.7544 67.8839 50.8801C67.9255 51.0014 67.9854 51.1227 68.0635 51.2441C68.1364 51.3741 68.225 51.4802 68.3291 51.5626C68.4333 51.6449 68.5634 51.7121 68.7197 51.7641C68.8707 51.8204 69.0477 51.8486 69.2508 51.8486C69.381 51.8486 69.4956 51.8096 69.5945 51.7316C69.7299 51.7316 69.8444 51.7576 69.9382 51.8096C70.0319 51.8572 70.0788 51.9287 70.0788 52.0241C70.0788 52.3751 69.7846 52.5506 69.1961 52.5506C68.967 52.5506 68.7197 52.5202 68.4541 52.4596C68.1885 52.4032 67.988 52.3404 67.8526 52.2711C67.1444 51.8897 66.7903 50.8476 66.7903 49.1446V48.7871C66.7851 48.6701 66.7825 48.5292 66.7825 48.3645V48.046C66.7825 47.6214 66.7877 47.2899 66.7981 47.0515C66.8085 46.8132 66.8294 46.5229 66.8606 46.1805C66.8919 45.8382 66.9413 45.5565 67.009 45.3355C67.0767 45.1145 67.1809 44.8675 67.3215 44.5945C67.4517 44.3432 67.6079 44.146 67.7901 44.003C67.9776 43.86 68.2224 43.7387 68.5244 43.639Z" fill="#202020"/>
<path d="M75.0622 49.4046L75.07 48.8001V48.7481C75.07 48.7004 75.0726 48.6592 75.0779 48.6245C75.0883 48.4859 75.0935 48.3992 75.0935 48.3645C75.0935 48.3515 75.0779 48.3299 75.0466 48.2995C75.0154 48.2735 74.9997 48.254 74.9997 48.241V48.228C74.9216 48.2454 74.8253 48.254 74.7107 48.254C74.5962 48.254 74.4243 48.2346 74.1952 48.1955C73.9869 48.1609 73.8151 48.1392 73.6797 48.1305V49.6581C73.6797 49.8964 73.6953 50.2604 73.7265 50.7501C73.7578 51.2354 73.7734 51.6016 73.7734 51.8486C73.7734 51.9829 73.7318 52.0977 73.6484 52.1931C73.5703 52.2841 73.461 52.3296 73.3204 52.3296C73.1069 52.3296 72.9611 52.1671 72.8829 51.8421C72.7996 51.5344 72.758 51.0946 72.758 50.5226C72.758 50.2756 72.7658 49.9181 72.7814 49.4501C72.797 48.9864 72.8048 48.6679 72.8048 48.4945C72.8048 48.4079 72.8074 48.332 72.8126 48.267V48.0785C72.8126 47.9442 72.8022 47.851 72.7814 47.799V47.734L72.8048 47.4805L72.8439 46.954C72.8439 46.577 72.8257 46.0765 72.7892 45.4525C72.7528 44.8285 72.7345 44.328 72.7345 43.951C72.7345 43.847 72.7788 43.756 72.8673 43.678C72.9558 43.5957 73.0626 43.5545 73.1876 43.5545C73.5261 43.5545 73.6953 43.8189 73.6953 44.3475C73.6953 44.7982 73.6849 45.3507 73.664 46.005C73.6432 46.6637 73.6328 47.2184 73.6328 47.669C73.8203 47.7124 74.1119 47.734 74.5076 47.734H75.0857C75.1117 47.6907 75.1247 47.6344 75.1247 47.565C75.1247 47.11 75.0909 46.4795 75.0232 45.6735C74.9503 44.8025 74.9138 44.172 74.9138 43.782C74.9138 43.6824 74.9581 43.6 75.0466 43.535C75.1403 43.4657 75.2497 43.431 75.3747 43.431C75.458 43.431 75.5647 43.4548 75.6949 43.5025C75.7887 43.5329 75.8381 43.548 75.8433 43.548C75.8433 44.64 75.8954 46.3235 75.9995 48.5985L76.148 51.9591C76.148 52.0804 76.0933 52.1779 75.9839 52.2516C75.8746 52.3252 75.7444 52.3621 75.5934 52.3621C75.2289 52.3621 75.0466 51.6319 75.0466 50.1716L75.0544 49.5931C75.0596 49.5541 75.0622 49.4912 75.0622 49.4046Z" fill="#202020"/>
<path d="M81.0924 43.873C81.3215 43.9597 81.436 44.0572 81.436 44.1655C81.436 44.2565 81.3918 44.3389 81.3033 44.4125C81.2147 44.4819 81.1028 44.5382 80.9674 44.5815C80.4779 44.4472 80.0743 44.3627 79.7567 44.328C79.7723 44.5144 79.7801 44.705 79.7801 44.9C79.7801 45.16 79.7697 45.4785 79.7489 45.8555C79.7228 46.3235 79.7098 46.642 79.7098 46.811L79.7567 47.019L80.0144 47.006C80.103 47.0017 80.2071 46.9995 80.3269 46.9995C80.8424 46.9995 81.1002 47.1209 81.1002 47.3635C81.1002 47.4589 81.0507 47.5434 80.9518 47.617C80.858 47.6864 80.7383 47.721 80.5925 47.721C80.4362 47.721 80.2852 47.7124 80.1394 47.695H79.7332C79.7645 48.033 79.7801 48.3689 79.7801 48.7026C79.7801 49.0232 79.7697 49.4241 79.7489 49.9051C79.7228 50.5031 79.7098 50.9061 79.7098 51.1141C79.7098 51.6124 79.7202 51.8616 79.741 51.8616L80.2644 51.8421L80.9205 51.8291C81.3267 51.8291 81.5298 51.9374 81.5298 52.1541C81.5298 52.2797 81.4621 52.3751 81.3267 52.4401C81.1965 52.5051 81.0351 52.5376 80.8424 52.5376H79.4911C79.3453 52.5376 79.2151 52.4964 79.1005 52.4141C78.9912 52.3361 78.9339 52.2407 78.9287 52.1281V51.7771C78.9287 51.6817 78.9261 51.5929 78.9209 51.5106L78.9053 51.2311C78.9053 51.0881 78.8923 50.8042 78.8662 50.3796C78.8402 49.9592 78.8272 49.6754 78.8272 49.5281C78.8272 49.0384 78.8454 48.3905 78.8818 47.5845C78.9183 46.7785 78.9365 46.1307 78.9365 45.641C78.9365 45.5457 78.9235 45.3572 78.8975 45.0755C78.8662 44.8285 78.8506 44.6422 78.8506 44.5165C78.8506 43.8882 79.0745 43.574 79.5223 43.574C79.7254 43.574 79.9806 43.6022 80.2878 43.6585C80.6003 43.7105 80.8684 43.782 81.0924 43.873Z" fill="#202020"/>
<path d="M85.2478 44.6075C85.1385 44.8979 85.0838 45.1535 85.0838 45.3745C85.0838 45.6302 85.1281 45.8902 85.2166 46.1545C85.3103 46.4189 85.4327 46.6572 85.5837 46.8695C85.9743 47.4459 86.2815 47.916 86.5054 48.28C86.6512 48.5227 86.7684 48.8087 86.8569 49.1381C86.9506 49.4674 86.9975 49.8011 86.9975 50.1391C86.9975 50.6764 86.8491 51.1899 86.5523 51.6796C86.4013 51.9309 86.1904 52.1324 85.9196 52.2841C85.6488 52.4314 85.3468 52.5072 85.0135 52.5116V52.5441C84.8156 52.5181 84.6516 52.4596 84.5214 52.3686C84.3912 52.2819 84.3157 52.1692 84.2949 52.0306L84.4745 51.8031C84.6308 51.8291 84.7297 51.8464 84.7714 51.8551C84.9172 51.8854 85.0395 51.9006 85.1385 51.9006C85.3364 51.9006 85.5108 51.8291 85.6618 51.6861C85.8128 51.5431 85.9274 51.3567 86.0055 51.1271C86.1461 50.7067 86.2164 50.3232 86.2164 49.9766C86.2164 49.6819 86.1539 49.3764 86.0289 49.0601C85.9092 48.7394 85.7477 48.4296 85.5447 48.1305L85.3962 47.916C85.1775 47.604 84.9979 47.3332 84.8573 47.1035C84.7167 46.8695 84.5969 46.6182 84.498 46.3495C84.3678 46.0115 84.3027 45.6627 84.3027 45.303C84.3027 44.9 84.412 44.4949 84.6308 44.0875C84.7401 43.8752 84.8911 43.7062 85.0838 43.5805C85.2817 43.4505 85.503 43.3855 85.7477 43.3855C85.9456 43.3855 86.1253 43.4375 86.2867 43.5415C86.4533 43.6412 86.5367 43.7647 86.5367 43.912C86.5367 43.99 86.4976 44.0529 86.4195 44.1005C86.3414 44.1439 86.2503 44.1655 86.1461 44.1655C86.0315 44.1655 85.9196 44.1395 85.8102 44.0875C85.6905 44.0919 85.5811 44.1417 85.4822 44.237C85.3832 44.3324 85.3051 44.4559 85.2478 44.6075Z" fill="#202020"/>
</svg>
