<svg width="144" height="165" viewBox="0 0 144 165" fill="none" xmlns="http://www.w3.org/2000/svg">
<path d="M72.5579 77.6231C73.5153 76.7666 73.4464 76.465 72.4843 75.844C57.4563 66.3658 34.8925 75.0354 22.1301 71.5907C18.2066 70.5362 14.9104 66.9849 15.9249 62.7365C18.6158 51.4493 42.524 50.7323 50.2594 42.1051C51.2627 40.9726 51.1884 40.0823 49.9583 39.3112C40.9087 33.6502 19.5116 35.6796 9.23172 38.377C8.62281 38.5427 7.96763 38.7131 7.59871 38.1338C7.09564 37.3439 8.19935 36.0982 9.12527 35.6566C24.1631 28.3995 61.1537 30.7013 54.8512 43.4742C49.9315 53.4666 27.2238 55.5657 21.2246 62.4704C20.0318 63.8469 20.2948 65.3819 21.809 66.3669C29.892 71.6319 51.9983 61.6252 71.1228 69.8763C73.0498 70.6971 75.3022 71.6808 76.8888 73.3599C78.9271 75.5162 78.8964 78.1759 76.8465 80.2956C71.0792 86.2877 57.4446 87.4696 48.0036 93.4572C43.797 96.1361 42.7857 101.937 47.4684 104.803C53.9684 108.781 66.1953 104.77 89.0538 109.755C95.4331 111.145 115.877 115.472 124.082 120.388C124.869 120.849 124.465 121.994 123.564 121.779C113.668 119.469 97.6357 111.741 58.7885 111.979C54.5377 111.996 50.296 111.564 46.2826 109.826C41.915 107.92 39.1951 103.533 39.5155 98.8134C40.45 85.1163 65.8577 83.5431 72.5292 77.6167L72.5579 77.6231Z" fill="#202020"/>
<path d="M110.718 131.934C122.192 124.651 134.376 123.628 134.365 122.451C134.346 121.723 126.339 119.518 114.744 109.705C113.882 108.971 113.02 108.236 112.287 107.395C110.147 104.885 110.712 102.329 112.847 103.091C115.098 103.878 123.117 110.319 132.018 115.631C135.756 117.864 141.033 120.697 141.692 121.19C143.068 122.189 142.987 124.19 141.483 125C137.284 127.304 135.682 126.375 109.071 136.659C108.81 136.751 108.582 136.896 108.333 136.931C107.429 137.137 106.615 136.323 106.79 135.398C107.08 133.88 108.615 133.273 110.712 131.962L110.718 131.934Z" fill="#202020"/>
</svg>
