<svg width="66" height="69" viewBox="0 0 66 69" fill="none" xmlns="http://www.w3.org/2000/svg">
<path d="M13.6657 20.5961C13.9834 20.9139 14.3293 21.0727 14.7033 21.0727C15.0773 21.0727 15.422 20.9139 15.7373 20.5961L19.5873 16.7461C19.9076 16.4259 20.0677 16.0677 20.0677 15.6717C20.0677 15.2782 19.9088 14.9213 19.591 14.6011L15.741 10.7511C15.4208 10.4333 15.0749 10.2744 14.7033 10.2744C14.3318 10.2744 13.9859 10.4333 13.6657 10.7511L9.81567 14.6011C9.49789 14.9189 9.339 15.2757 9.339 15.6717C9.339 16.0677 9.49789 16.4259 9.81567 16.7461L13.6657 20.5961ZM49.5 17.1531C50.5096 17.1531 51.3737 16.795 52.0923 16.0787C52.8086 15.3625 53.1667 14.4984 53.1667 13.4864C53.1667 12.4769 52.8086 11.614 52.0923 10.8977C51.3737 10.1791 50.5096 9.81974 49.5 9.81974C48.4904 9.81974 47.6263 10.1779 46.9077 10.8941C46.1914 11.6127 45.8333 12.4769 45.8333 13.4864C45.8333 14.4984 46.1914 15.3625 46.9077 16.0787C47.6263 16.795 48.4904 17.1531 49.5 17.1531ZM13.9627 68.3471C13.112 68.3471 12.4056 68.066 11.8433 67.5037C11.2811 66.9415 11 66.2351 11 65.3844V63.1844C11 61.752 11.396 60.4124 12.188 59.1657C12.98 57.9191 14.0482 57.0024 15.3927 56.4157C18.1989 55.152 21.0687 54.1913 24.002 53.5337C26.9353 52.8786 29.9347 52.5511 33 52.5511C36.0653 52.5511 39.0647 52.8786 41.998 53.5337C44.9313 54.1913 47.8011 55.152 50.6073 56.4157C51.9518 57.0024 53.02 57.9191 53.812 59.1657C54.604 60.4124 55 61.752 55 63.1844V65.3844C55 66.2351 54.7189 66.9415 54.1567 67.5037C53.5944 68.066 52.888 68.3471 52.0373 68.3471H13.9627ZM33 47.4727C30.4431 47.4727 28.2761 46.5854 26.499 44.8107C24.7219 43.0336 23.8333 40.8654 23.8333 38.3061C23.8333 35.7492 24.7219 33.5822 26.499 31.8051C28.2761 30.028 30.4431 29.1394 33 29.1394C35.5569 29.1394 37.7239 30.028 39.501 31.8051C41.2781 33.5822 42.1667 35.7492 42.1667 38.3061C42.1667 40.8654 41.2781 43.0336 39.501 44.8107C37.7239 46.5854 35.5569 47.4727 33 47.4727ZM0 6.57841C0 4.89174 0.565889 3.48252 1.69767 2.35074C2.827 1.21897 4.235 0.653076 5.92167 0.653076H60.0783C61.765 0.653076 63.173 1.21897 64.3023 2.35074C65.4341 3.48008 66 4.8893 66 6.57841V35.0647C66 36.7514 65.4353 38.1606 64.306 39.2924C63.1742 40.4217 61.765 40.9864 60.0783 40.9864H51.7183C50.963 40.9864 50.3238 40.6955 49.8007 40.1137C49.2751 39.5295 49.027 38.8597 49.0563 38.1044C49.071 37.9773 49.0783 37.8465 49.0783 37.7121C49.0783 37.5776 49.071 37.4469 49.0563 37.3197C48.8021 33.0982 47.1362 29.5293 44.0587 26.6131C40.9836 23.6895 37.2973 22.2277 33 22.2277C28.7027 22.2277 25.0164 23.6883 21.9413 26.6094C18.8638 29.5281 17.1967 33.0994 16.94 37.3234C16.9253 37.4505 16.918 37.5813 16.918 37.7157C16.918 37.8502 16.9253 37.981 16.94 38.1081C16.9693 38.8659 16.7212 39.5356 16.1957 40.1174C15.6726 40.6992 15.0321 40.9901 14.2743 40.9901H5.92167C4.235 40.9901 2.827 40.4254 1.69767 39.2961C0.565889 38.1619 0 36.7514 0 35.0647V6.57841Z" fill="#FEFEFE"/>
</svg>
