<svg width="51" height="82" viewBox="0 0 51 82" fill="none" xmlns="http://www.w3.org/2000/svg">
<path d="M19.1667 0.548528C18.9064 0.541309 18.6383 0.570012 18.3781 0.570012C12.8209 0.570012 8.2966 6.30686 8.2966 13.4153C8.2966 17.0147 9.49457 20.2628 11.3582 22.6003C-0.169957 24.3883 0.081494 42.4893 0.081494 55.0118H7.02696L8.74434 81.0752H22.2211L20.5889 55.062H13.6142C13.6142 42.5398 13.3934 24.4072 24.9219 22.6197C23.0584 20.2818 21.8574 17.0252 21.8574 13.4261C21.8574 9.62129 23.1418 6.22797 25.1873 3.8939C23.6344 2.06807 21.6351 0.856872 19.424 0.56984C19.3394 0.55695 19.2538 0.550934 19.1668 0.548356L19.1667 0.548528ZM32.6937 0.617622C32.4303 0.610747 32.1565 0.639106 31.8962 0.639106V81.1639H40.8784L42.8864 55.0621H50.1777C50.1777 42.5747 49.3184 24.8168 38.7649 22.8311C40.7119 20.4824 42.0408 17.1166 42.0408 13.4261C42.0408 6.76129 38.0275 1.29859 32.9529 0.638934C32.8684 0.626215 32.7816 0.620028 32.6937 0.617449V0.617622Z" fill="#FEFEFE"/>
</svg>
