<svg width="66" height="67" viewBox="0 0 66 67" fill="none" xmlns="http://www.w3.org/2000/svg">
<path d="M46.75 59.6433C43.7067 59.6433 41.25 56.5633 41.25 52.75C41.25 48.9733 43.7067 45.8933 46.75 45.8933C49.7934 45.8933 52.25 48.9733 52.25 52.75C52.25 56.5633 49.7934 59.6433 46.75 59.6433ZM33 30.75C28.4534 30.75 24.75 27.67 24.75 23.8933C24.75 20.08 28.4534 17 33 17C37.5467 17 41.25 20.08 41.25 23.8933C41.25 27.67 37.5467 30.75 33 30.75ZM19.25 59.6433C16.2067 59.6433 13.75 56.5633 13.75 52.75C13.75 48.9733 16.2067 45.8933 19.25 45.8933C22.2934 45.8933 24.75 48.9733 24.75 52.75C24.75 56.5633 22.2934 59.6433 19.25 59.6433ZM33 19.75C34.5034 19.75 35.75 20.9967 35.75 22.5C35.75 24.0033 34.5034 25.25 33 25.25C31.4967 25.25 30.25 24.0033 30.25 22.5C30.25 20.9967 31.4967 19.75 33 19.75ZM57.75 33.5C56.5767 33.5 55.44 33.7567 54.4134 34.2333C52.6534 31.9967 50.27 30.09 47.41 28.6233C49.5 25.69 50.7467 22.1333 50.7467 18.2833V18.0633C54.7434 17.22 57.75 13.6633 57.75 9.37333C57.75 4.49667 53.7534 0.5 48.8767 0.5C46.3467 0.5 44 1.56333 42.46 3.25C39.6317 1.45401 36.3505 0.500271 33 0.500271C29.6496 0.500271 26.3684 1.45401 23.54 3.25C22 1.56333 19.6534 0.5 17.1234 0.5C12.2467 0.5 8.25005 4.49667 8.25005 9.37333C8.25005 13.6267 11.2567 17.1833 15.2167 18.0633V18.2833C15.2167 22.1333 16.5 25.7267 18.5534 28.6233C15.73 30.09 13.3467 31.9967 11.5867 34.2333C10.3337 33.6689 8.95905 33.4279 7.58873 33.5324C6.21842 33.6369 4.89623 34.0836 3.7433 34.8315C2.59036 35.5795 1.64353 36.6048 0.989556 37.8135C0.335577 39.0222 -0.00464814 40.3757 4.7963e-05 41.75C4.7963e-05 46.3333 3.66671 50 8.25005 50H8.47005C8.32338 50.88 8.25005 51.8333 8.25005 52.75C8.25005 60.34 13.1634 66.5 19.25 66.5C22.9534 66.5 26.2167 64.19 28.2334 60.67C29.7734 60.89 31.35 61 33 61C34.65 61 36.2267 60.89 37.7667 60.67C39.7834 64.19 43.0467 66.5 46.75 66.5C52.8367 66.5 57.75 60.34 57.75 52.75C57.75 51.8333 57.6767 50.88 57.53 50H57.75C62.3334 50 66 46.3333 66 41.75C66 37.1667 62.3334 33.5 57.75 33.5Z" fill="#FEFEFE"/>
</svg>
