<svg width="74" height="67" viewBox="0 0 74 67" fill="none" xmlns="http://www.w3.org/2000/svg">
<path d="M4 18.8334V11.5001C4 9.55516 4.77262 7.6899 6.14788 6.31463C7.52315 4.93936 9.38841 4.16675 11.3333 4.16675H62.6667C64.6116 4.16675 66.4768 4.93936 67.8521 6.31463C69.2274 7.6899 70 9.55516 70 11.5001V18.8334M4 18.8334V40.8334M4 18.8334H26M70 18.8334V40.8334M70 18.8334H26M4 40.8334V55.5001C4 57.445 4.77262 59.3103 6.14788 60.6855C7.52315 62.0608 9.38841 62.8334 11.3333 62.8334H26M4 40.8334H26M26 18.8334V40.8334M70 40.8334V55.5001C70 57.445 69.2274 59.3103 67.8521 60.6855C66.4768 62.0608 64.6116 62.8334 62.6667 62.8334H26M70 40.8334H26M26 62.8334V40.8334M48 18.8334V62.8334" stroke="#FEFEFE" stroke-width="7.33333" stroke-linecap="round" stroke-linejoin="round"/>
<path d="M4 11.5001C4 9.55516 4.77262 7.6899 6.14788 6.31463C7.52315 4.93936 9.38841 4.16675 11.3333 4.16675H62.6667C64.6116 4.16675 66.4768 4.93936 67.8521 6.31463C69.2274 7.6899 70 9.55516 70 11.5001V18.8334H4V11.5001Z" fill="#FEFEFE"/>
</svg>
