<svg width="24" height="24" viewBox="0 0 24 24" fill="none" xmlns="http://www.w3.org/2000/svg">
<path d="M20.8589 15.3311L17.0869 21.4861C16.6727 22.1661 16.1088 22.7426 15.4382 23.1719C14.7676 23.6011 14.0079 23.8717 13.2169 23.9631C13.0085 23.9878 12.7988 24.0002 12.5889 24.0001C11.5144 23.9986 10.4666 23.6651 9.58894 23.0451C8.68199 23.7245 7.56167 24.0567 6.43095 23.9813C5.30022 23.9059 4.2339 23.428 3.42518 22.6341C2.61647 21.8403 2.11885 20.783 2.0225 19.6539C1.92614 18.5248 2.23742 17.3985 2.89994 16.4791L1.58494 15.1661C1.02343 14.6045 0.596253 13.9232 0.335389 13.1732C0.0745246 12.4232 -0.0132627 11.6238 0.0786013 10.835C0.170465 10.0463 0.4396 9.28848 0.865849 8.61847C1.2921 7.94845 1.86441 7.38355 2.53994 6.96608L8.30694 3.40008C9.86915 2.39886 11.7063 1.91343 13.5592 2.0123C15.4121 2.11116 17.1871 2.78931 18.6339 3.95108L20.2929 2.29208C20.3852 2.19657 20.4955 2.12039 20.6175 2.06798C20.7395 2.01557 20.8708 1.98799 21.0035 1.98683C21.1363 1.98568 21.268 2.01098 21.3909 2.06126C21.5138 2.11154 21.6254 2.18579 21.7193 2.27969C21.8132 2.37358 21.8875 2.48523 21.9378 2.60813C21.988 2.73102 22.0133 2.8627 22.0122 2.99548C22.011 3.12826 21.9834 3.25948 21.931 3.38149C21.8786 3.50349 21.8024 3.61384 21.7069 3.70608L20.0499 5.36408C21.1613 6.75632 21.8319 8.44851 21.976 10.2241C22.1202 11.9996 21.7312 13.7778 20.8589 15.3311ZM8.06494 21.6471L4.34594 17.9271C4.05531 18.4468 3.94322 19.0476 4.02686 19.6372C4.11049 20.2268 4.38523 20.7726 4.80894 21.1911C5.23636 21.5971 5.78001 21.8593 6.36383 21.9411C6.94765 22.0228 7.54243 21.9201 8.06494 21.6471ZM17.9859 6.04708C16.8755 4.92592 15.4137 4.22011 13.8451 4.04772C12.2766 3.87534 10.6964 4.24684 9.36894 5.10008L3.59194 8.66608C3.17298 8.92505 2.81804 9.27544 2.55369 9.69103C2.28935 10.1066 2.12246 10.5766 2.06551 11.0659C2.00857 11.5551 2.06304 12.0509 2.22487 12.5161C2.38669 12.9813 2.65166 13.4038 2.99994 13.7521L10.2899 21.0431C10.6388 21.3923 11.0623 21.6579 11.5285 21.8199C11.9948 21.9819 12.4917 22.036 12.982 21.9783C13.4722 21.9205 13.9429 21.7524 14.3588 21.4865C14.7746 21.2206 15.1248 20.8638 15.3829 20.4431L19.1379 14.3181C19.8714 13.0008 20.1556 11.4805 19.9478 9.98718C19.7399 8.49389 19.0512 7.10898 17.9859 6.04208V6.04708ZM19.2649 24.0001C19.0537 24.0005 18.8479 23.934 18.6768 23.8102C18.5057 23.6863 18.3782 23.5115 18.3126 23.3108C18.247 23.1101 18.2466 22.8937 18.3115 22.6927C18.3764 22.4918 18.5033 22.3165 18.6739 22.1921C20.4249 20.8756 21.61 18.9427 21.9889 16.7851C22.0155 16.6552 22.0676 16.5319 22.1423 16.4223C22.217 16.3128 22.3127 16.2192 22.4239 16.1469C22.535 16.0747 22.6595 16.0253 22.7899 16.0016C22.9203 15.9779 23.0542 15.9804 23.1837 16.0089C23.3131 16.0374 23.4357 16.0914 23.5441 16.1677C23.6525 16.244 23.7447 16.341 23.8153 16.4533C23.8858 16.5655 23.9333 16.6907 23.9551 16.8215C23.9768 16.9522 23.9724 17.086 23.9419 17.2151C23.4519 19.8467 21.9933 22.1991 19.8539 23.8081C19.6829 23.9328 19.4766 24 19.2649 24.0001ZM0.999937 5.73908C0.81524 5.73826 0.634379 5.6863 0.477408 5.58897C0.320437 5.49163 0.19349 5.35273 0.110642 5.18765C0.0277933 5.02258 -0.00771885 4.83778 0.00804285 4.65375C0.0238045 4.46973 0.0902242 4.29366 0.199937 4.14508C1.83092 1.96567 4.23176 0.490404 6.91294 0.0200819C7.17285 -0.0329614 7.44319 0.0194175 7.66448 0.165696C7.88577 0.311974 8.03989 0.54017 8.09294 0.800082C8.14598 1.05999 8.0936 1.33033 7.94732 1.55163C7.80104 1.77292 7.57285 1.92704 7.31294 1.98008C5.11091 2.3437 3.13517 3.54571 1.79994 5.33408C1.70731 5.4592 1.58676 5.56096 1.44788 5.63127C1.30899 5.70159 1.15561 5.7385 0.999937 5.73908Z" fill="#202020"/>
</svg>
