<svg width="1280" height="464" viewBox="0 0 1280 464" fill="none" xmlns="http://www.w3.org/2000/svg">
<path d="M436.611 204.011C436.464 202.55 436.165 202.409 435.049 202.877C417.813 210.338 411.462 237.009 400.751 246.456C397.462 249.363 392.426 250.005 389.421 246.199C381.435 236.093 395.386 213.554 392.741 200.591C392.386 198.9 391.582 198.367 390.175 198.981C379.835 203.506 368.533 224.615 364.571 235.92C364.342 236.594 364.088 237.313 363.369 237.262C362.389 237.193 361.999 235.333 362.187 234.181C365.158 215.407 389.652 182.838 396.705 197.279C402.23 208.567 390.188 230.933 392.422 241.131C392.869 243.161 394.339 243.955 396.101 243.223C405.514 239.323 410.446 212.171 429.131 200.102C431.005 198.879 433.215 197.466 435.614 197.136C438.694 196.713 440.943 198.537 441.502 201.86C443.099 211.228 435.802 224.604 435.158 237.357C434.88 243.047 439.211 247.898 444.507 245.514C451.859 242.206 455.885 228.217 474.06 210.497C479.131 205.552 495.273 189.615 504.463 185.366C505.335 184.952 506.066 186.098 505.333 186.784C497.337 194.353 480.981 203.922 457.521 239.919C454.947 243.852 451.995 247.473 448.069 250.002C443.782 252.743 438.385 252.289 434.555 248.805C423.444 238.692 437.578 214.191 436.588 204.033L436.611 204.011Z" fill="#202020"/>
<path d="M506.178 204.808C506.959 189.2 513.528 177.189 512.514 176.398C511.879 175.922 505.102 181.858 489.623 185.954C488.469 186.255 487.314 186.556 486.147 186.664C482.692 186.945 480.851 184.683 482.808 183.217C484.856 181.663 495.265 178.595 505.246 173.941C509.44 171.988 515.087 169.013 515.912 168.737C517.607 168.139 519.269 169.574 519.043 171.522C518.448 176.989 516.674 177.844 509.213 209.55C509.132 209.856 509.117 210.166 508.995 210.421C508.619 211.4 507.425 211.603 506.74 210.811C505.62 209.51 506.038 207.672 506.198 204.833L506.178 204.808Z" fill="#202020"/>
<path d="M107.772 291.927C113.447 287.231 116.8 284.143 120.664 281.838C133.692 274.123 142.185 282.186 140.67 295.066C140.187 299.131 139.609 302.561 139.119 307.947C138.681 312.776 140.453 318.229 144.45 320.489C151.331 324.385 159.187 311.535 171.177 308.263C177.6 306.504 184.093 310.237 186.958 315.168C188.909 318.533 189.01 319.023 189.884 318.544C192.204 317.282 194.426 315.143 195.408 317.096C196.16 318.592 195.9 320.584 195.701 328.479C195.662 330.162 194.758 331.833 192.986 331.405C190.711 330.879 186.845 329.214 184.055 326.915C182.454 325.599 181.773 324.529 183.253 323.036C184.971 321.306 186.709 321.267 185.637 319.751C183.425 316.575 179.951 313.592 176.379 312.874C174.018 312.397 170.277 313.396 168.304 314.42C158.691 319.458 154.846 325.846 146.961 325.642C141.425 325.497 134.889 319.437 135.123 308.909C135.331 299.267 138.489 292.582 135.494 286.468C134.399 284.236 131.72 283.313 130.506 283.417C118.155 284.383 110.777 298.338 99.8248 300.148C93.6629 301.17 85.4627 296.405 82.9367 286.194C81.8681 281.859 82.6543 274.44 86.4025 268.473C88.0089 265.915 87.6351 266.29 88.6255 265.158C88.934 264.8 89.5549 265.033 89.6346 265.636C89.7377 266.368 89.5256 266.894 87.9585 270.321C85.7179 275.246 84.6465 281.896 86.3825 286.721C88.6826 293.15 94.7202 298.298 100.403 296.09C100.729 295.964 103.947 295.101 107.772 291.927Z" fill="#202020"/>
<path d="M1164.79 302.469C1164.69 301.859 1164.33 301.455 1163.86 301.29C1162.62 300.894 1162.38 302.107 1162.06 303.537C1157.92 322.094 1146.44 337.119 1133.41 343.585C1121.32 349.577 1108.1 345.921 1102.12 339.264C1101.47 338.562 1103.27 338.024 1106.73 335.899C1117.22 329.441 1126.46 316.042 1123.16 301.042C1119.35 283.696 1104.66 280.131 1096.71 291.428C1090.44 300.346 1088.79 312.121 1090.55 323.108C1092.31 334.183 1095.29 334.998 1092.94 335.589C1082.53 338.209 1074.54 337.338 1059.73 335.228C1058.63 335.076 1057.68 334.778 1057.32 335.77C1057.2 336.098 1057.29 336.483 1057.54 336.567C1059.32 337.144 1061 338.273 1062.79 338.784C1077.51 343.111 1087.13 342.65 1096.2 340.621C1099.15 339.948 1099.28 346.826 1112.99 350.773C1118.96 352.49 1124.66 352.035 1130.25 350.522C1151.58 344.724 1167.1 316.006 1164.79 302.469ZM1098.95 333.456C1098.16 333.906 1097.72 332.882 1097.28 331.835C1089.81 314.579 1097.03 288.869 1109.83 290.296C1111.68 290.487 1113.41 291.262 1114.86 293.013C1115.93 294.313 1116.93 295.742 1117.56 297.405C1119.57 302.633 1120.13 307.496 1118.16 313.229C1116.81 317.16 1114.88 320.582 1112.41 323.444C1107.62 328.988 1104.76 330.192 1098.95 333.456Z" fill="#202020"/>
<path d="M1152.05 295.435C1165.96 286.744 1162.61 279.105 1165.55 283.965C1167.72 287.546 1169.57 296.566 1169.95 302.49C1170.31 308.21 1168.99 311.509 1168.87 312.923C1168.8 313.809 1169.48 314.474 1170.17 314.281C1171.41 313.955 1172.59 311.493 1173.14 309.6C1174.81 303.796 1173.83 290.388 1169.01 280.816C1168.15 279.09 1167.02 277.573 1165.82 276.187C1164.51 274.659 1163.25 274.589 1161.96 275.825C1160.67 277.062 1159.59 278.673 1159.01 279.821C1154.03 290.125 1143.77 293.807 1145.4 296.642C1145.69 297.146 1146.12 297.456 1146.6 297.385C1147.11 297.328 1147.63 297.293 1148.09 297.086C1149.61 296.394 1151.26 296.095 1152.03 295.445L1152.05 295.435Z" fill="#202020"/>
<path d="M796.692 202.715C800.909 203.836 804.645 205.926 808.033 208.737C808.774 209.352 809.44 209.564 810.359 209.405C817.009 208.329 823.105 209.735 828.665 213.541C837.794 219.787 841.983 227.935 840.107 239.905C839.259 245.32 838.015 250.626 836.324 255.836C835.928 257.07 835.359 258.232 834.885 259.428C834.185 261.142 832.898 261.339 832.604 260.34C831.903 258.027 837.297 240.282 835.743 231.399C833.806 220.275 822.048 212.979 813.59 213.58C812.85 213.636 812.645 213.976 812.939 214.687C813.363 215.71 813.773 216.755 814.179 217.782C815.246 220.423 815.333 225.675 813.365 229.882C808.552 240.114 796.042 239.8 794.084 229.909C793.044 224.634 794.953 216.472 801.394 212.745C801.845 212.476 802.603 212.415 802.667 211.804C802.742 211.056 801.96 210.892 801.478 210.613C791.79 205.01 785.119 208.182 781.101 208.314C780.906 208.326 780.701 208.378 780.52 208.463C775.594 210.343 768.964 211.817 759.22 219.979C754.489 223.957 756.325 222.679 755.277 223.39C754.404 223.979 752.74 222.833 754.935 220.313C756.597 218.39 758.351 216.578 760.218 214.889C764.03 211.455 767.501 207.82 776.186 204.514C777.773 203.914 789.876 200.899 796.712 202.729L796.692 202.715ZM807.217 215.467C806.82 214.975 806.322 214.892 805.793 215.124C802.707 216.416 800.095 218.333 798.68 221.766C796.824 226.289 797.107 232.392 801.652 233.353C804.561 233.986 807.971 231.556 808.954 229.443C811.154 224.658 810.95 220.031 807.217 215.467Z" fill="#202020"/>
<path d="M828.277 275.038C828.251 273.564 828.258 273.217 828.179 272.891C826.602 266.937 824.831 261.09 821.161 256.25C816.372 249.911 813.269 249.922 814.111 248.033C814.764 246.559 816.089 246.967 817.626 247.552C828.013 251.471 829.957 260.06 832.021 266.427C832.397 267.579 833.154 265.424 836.233 261.558C845.989 249.306 851.941 253.175 849.577 255.993C847.287 258.734 844.455 260.673 841.08 264.385C834.357 271.763 833.971 274.476 831.566 277.362C830.692 278.413 829.51 278.198 829.021 277.017C828.758 276.374 828.526 275.704 828.28 275.056L828.277 275.038Z" fill="#202020"/>
</svg>
