<svg width="271" height="264" viewBox="0 0 271 264" fill="none" xmlns="http://www.w3.org/2000/svg">
<path d="M127.439 69.2115C152.593 85.5166 162.301 88.7855 188.328 89.7118C226.972 91.0925 262.257 120.166 243.566 163.245C229.188 196.377 194.276 223.348 164.507 224.32C114.378 225.96 57.0315 186.198 40.1358 138.929C25.5674 98.1801 43.4683 57.8083 79.0068 51.2616C91.0602 49.041 103.348 53.5937 127.439 69.2115Z" fill="#EF7407"/>
<path d="M108.703 137.733L107.543 134.305H102.709L101.549 137.733H99.501L104.08 125.05H106.207L110.786 137.733H108.703ZM105.1 127.159L103.21 132.723H107.042L105.152 127.159H105.1ZM115.181 137.891C112.843 137.891 111.296 136.028 111.296 133.11C111.296 130.192 112.843 128.337 115.163 128.337C116.49 128.337 117.545 129.005 118.063 130.025H118.099V125.05H120.006V137.733H118.16V136.159H118.125C117.58 137.214 116.525 137.891 115.181 137.891ZM115.682 129.937C114.179 129.937 113.238 131.167 113.238 133.11C113.238 135.061 114.179 136.282 115.682 136.282C117.141 136.282 118.116 135.043 118.116 133.11C118.116 131.194 117.141 129.937 115.682 129.937ZM123.917 128.487V138.172C123.917 140.053 122.941 140.949 120.894 140.949C120.806 140.949 120.507 140.949 120.454 140.932V139.438C120.489 139.438 120.691 139.447 120.727 139.447C121.667 139.447 122.019 139.095 122.019 138.163V128.487H123.917ZM122.968 127.133C122.361 127.133 121.869 126.65 121.869 126.052C121.869 125.446 122.361 124.962 122.968 124.962C123.583 124.962 124.075 125.446 124.075 126.052C124.075 126.65 123.583 127.133 122.968 127.133ZM129.727 129.849C128.399 129.849 127.468 130.86 127.371 132.257H131.994C131.95 130.842 131.054 129.849 129.727 129.849ZM131.985 135.017H133.787C133.523 136.704 131.924 137.908 129.806 137.908C127.09 137.908 125.446 136.072 125.446 133.154C125.446 130.253 127.116 128.32 129.727 128.32C132.293 128.32 133.893 130.13 133.893 132.934V133.584H127.362V133.698C127.362 135.307 128.329 136.37 129.85 136.37C130.931 136.37 131.73 135.825 131.985 135.017ZM137.355 132.45L141.091 128.487H143.323L139.491 132.468L143.473 137.733H141.267L138.129 133.628L137.338 134.41V137.733H135.439V125.05H137.338V132.45H137.355ZM145.011 126.298H146.918V128.487H148.676V129.99H146.918V135.087C146.918 135.887 147.27 136.247 148.043 136.247C148.236 136.247 148.544 136.23 148.667 136.203V137.706C148.456 137.759 148.034 137.794 147.612 137.794C145.74 137.794 145.011 137.082 145.011 135.298V129.99H143.666V128.487H145.011V126.298ZM150.302 137.733V128.487H152.2V137.733H150.302ZM151.251 127.133C150.645 127.133 150.152 126.65 150.152 126.052C150.152 125.446 150.645 124.962 151.251 124.962C151.866 124.962 152.358 125.446 152.358 126.052C152.358 126.65 151.866 127.133 151.251 127.133ZM162.035 128.487L158.722 137.733H156.683L153.352 128.487H155.373L157.693 135.878H157.729L160.049 128.487H162.035ZM166.729 129.849C165.401 129.849 164.47 130.86 164.373 132.257H168.996C168.952 130.842 168.056 129.849 166.729 129.849ZM168.987 135.017H170.789C170.525 136.704 168.926 137.908 166.808 137.908C164.092 137.908 162.448 136.072 162.448 133.154C162.448 130.253 164.118 128.32 166.729 128.32C169.295 128.32 170.895 130.13 170.895 132.934V133.584H164.364V133.698C164.364 135.307 165.331 136.37 166.852 136.37C167.933 136.37 168.732 135.825 168.987 135.017Z" fill="#FEFEFE"/>
</svg>
