<svg id="btnPronomen" width="215" height="165" viewBox="0 0 215 165" fill="none" xmlns="http://www.w3.org/2000/svg">
<path d="M61.3443 38.8454C91.1177 35.3645 100.68 31.6915 121.319 15.8077C151.966 -7.77161 197.686 -7.87841 210.76 37.2248C220.813 71.9142 211.12 114.953 188.81 134.686C151.241 167.916 81.712 173.857 38.5542 148.221C1.34702 126.123 -10.6092 83.61 12.5907 55.9043C20.4593 46.5073 32.8274 42.1786 61.3443 38.8454Z" fill="#EF7407"/>
<path d="M68.394 83.4473H73.1489C75.6099 83.4473 77.3237 85.1436 77.3237 87.6133C77.3237 90.0918 75.5747 91.7969 73.0874 91.7969H70.3628V96.1299H68.394V83.4473ZM70.3628 85.1084V90.1445H72.6216C74.3354 90.1445 75.311 89.2217 75.311 87.6221C75.311 86.0225 74.3354 85.1084 72.6304 85.1084H70.3628ZM78.8179 96.1299V86.8838H80.6284V88.457H80.6724C80.98 87.376 81.8062 86.7344 82.896 86.7344C83.1685 86.7344 83.4058 86.7783 83.5464 86.8047V88.5713C83.397 88.5098 83.063 88.4658 82.6938 88.4658C81.4722 88.4658 80.7163 89.2832 80.7163 90.5928V96.1299H78.8179ZM88.2925 96.3057C85.647 96.3057 83.9067 94.4863 83.9067 91.5068C83.9067 88.5361 85.6558 86.7168 88.2925 86.7168C90.9292 86.7168 92.6782 88.5361 92.6782 91.5068C92.6782 94.4863 90.938 96.3057 88.2925 96.3057ZM88.2925 94.7412C89.7866 94.7412 90.7446 93.5635 90.7446 91.5068C90.7446 89.459 89.7778 88.2812 88.2925 88.2812C86.8071 88.2812 85.8403 89.459 85.8403 91.5068C85.8403 93.5635 86.8071 94.7412 88.2925 94.7412ZM94.146 96.1299V86.8838H95.9565V88.4307H96.0005C96.5015 87.376 97.4858 86.7256 98.9097 86.7256C100.949 86.7256 102.118 88.0264 102.118 90.1445V96.1299H100.21V90.5137C100.21 89.125 99.5601 88.3604 98.2417 88.3604C96.9058 88.3604 96.0444 89.3096 96.0444 90.7422V96.1299H94.146ZM107.927 96.3057C105.282 96.3057 103.542 94.4863 103.542 91.5068C103.542 88.5361 105.291 86.7168 107.927 86.7168C110.564 86.7168 112.313 88.5361 112.313 91.5068C112.313 94.4863 110.573 96.3057 107.927 96.3057ZM107.927 94.7412C109.421 94.7412 110.379 93.5635 110.379 91.5068C110.379 89.459 109.413 88.2812 107.927 88.2812C106.442 88.2812 105.475 89.459 105.475 91.5068C105.475 93.5635 106.442 94.7412 107.927 94.7412ZM113.781 96.1299V86.8838H115.591V88.4395H115.635C116.048 87.4111 117.015 86.7256 118.263 86.7256C119.546 86.7256 120.478 87.3848 120.847 88.5361H120.891C121.366 87.4111 122.456 86.7256 123.774 86.7256C125.602 86.7256 126.797 87.9385 126.797 89.7754V96.1299H124.89V90.2324C124.89 89.0371 124.249 88.3516 123.124 88.3516C121.999 88.3516 121.216 89.1865 121.216 90.3555V96.1299H119.353V90.0918C119.353 89.0283 118.676 88.3516 117.604 88.3516C116.479 88.3516 115.679 89.2305 115.679 90.417V96.1299H113.781ZM132.501 88.2461C131.174 88.2461 130.243 89.2568 130.146 90.6543H134.769C134.725 89.2393 133.829 88.2461 132.501 88.2461ZM134.76 93.4141H136.562C136.298 95.1016 134.699 96.3057 132.581 96.3057C129.865 96.3057 128.221 94.4688 128.221 91.5508C128.221 88.6504 129.891 86.7168 132.501 86.7168C135.068 86.7168 136.667 88.5273 136.667 91.3311V91.9814H130.137V92.0957C130.137 93.7041 131.104 94.7676 132.625 94.7676C133.706 94.7676 134.505 94.2227 134.76 93.4141ZM138.144 96.1299V86.8838H139.955V88.4307H139.999C140.5 87.376 141.484 86.7256 142.908 86.7256C144.947 86.7256 146.116 88.0264 146.116 90.1445V96.1299H144.208V90.5137C144.208 89.125 143.558 88.3604 142.24 88.3604C140.904 88.3604 140.042 89.3096 140.042 90.7422V96.1299H138.144Z" fill="#FEFEFE"/>
</svg>
