<svg width="220" height="173" viewBox="0 0 220 173" fill="none" xmlns="http://www.w3.org/2000/svg">
<path d="M62.0627 45.1668C91.6883 40.596 101.11 36.5747 121.152 19.9444C150.913 -4.74327 196.599 -6.52723 211.318 38.066C222.637 72.3632 214.529 115.729 192.958 136.267C156.634 170.852 87.3696 179.34 43.3003 155.305C5.30752 134.587 -8.20024 92.5409 13.9677 64.0027C21.4862 54.3234 33.6872 49.5439 62.0627 45.1668Z" fill="#FB9A44"/>
<path d="M84.3042 92.8506H82.3882V80.168H84.1724L90.7466 89.5195H90.8169V80.168H92.7329V92.8506H90.9575L84.3833 83.5078H84.3042V92.8506ZM98.8237 93.0264C96.1782 93.0264 94.438 91.207 94.438 88.2275C94.438 85.2568 96.187 83.4375 98.8237 83.4375C101.46 83.4375 103.209 85.2568 103.209 88.2275C103.209 91.207 101.469 93.0264 98.8237 93.0264ZM98.8237 91.4619C100.318 91.4619 101.276 90.2842 101.276 88.2275C101.276 86.1797 100.309 85.002 98.8237 85.002C97.3384 85.002 96.3716 86.1797 96.3716 88.2275C96.3716 90.2842 97.3384 91.4619 98.8237 91.4619ZM104.677 92.8506V83.6045H106.488V85.1602H106.532C106.945 84.1318 107.912 83.4463 109.16 83.4463C110.443 83.4463 111.375 84.1055 111.744 85.2568H111.788C112.262 84.1318 113.352 83.4463 114.67 83.4463C116.499 83.4463 117.694 84.6592 117.694 86.4961V92.8506H115.787V86.9531C115.787 85.7578 115.145 85.0723 114.02 85.0723C112.895 85.0723 112.113 85.9072 112.113 87.0762V92.8506H110.25V86.8125C110.25 85.749 109.573 85.0723 108.5 85.0723C107.375 85.0723 106.576 85.9512 106.576 87.1377V92.8506H104.677ZM123.398 84.9668C122.071 84.9668 121.139 85.9775 121.042 87.375H125.666C125.622 85.96 124.725 84.9668 123.398 84.9668ZM125.657 90.1348H127.458C127.195 91.8223 125.595 93.0264 123.477 93.0264C120.761 93.0264 119.118 91.1895 119.118 88.2715C119.118 85.3711 120.788 83.4375 123.398 83.4375C125.964 83.4375 127.564 85.248 127.564 88.0518V88.7021H121.034V88.8164C121.034 90.4248 122 91.4883 123.521 91.4883C124.602 91.4883 125.402 90.9434 125.657 90.1348ZM129.041 92.8506V83.6045H130.851V85.1514H130.895C131.396 84.0967 132.38 83.4463 133.804 83.4463C135.843 83.4463 137.012 84.7471 137.012 86.8652V92.8506H135.105V87.2344C135.105 85.8457 134.455 85.0811 133.136 85.0811C131.8 85.0811 130.939 86.0303 130.939 87.4629V92.8506H129.041Z" fill="#FEFEFE"/>
</svg>
