<svg width="268" height="268" viewBox="0 0 268 268" fill="none" xmlns="http://www.w3.org/2000/svg">
<path d="M136.195 197.542C112.764 178.846 103.423 174.64 77.6132 171.162C39.2921 165.994 7.03156 133.597 29.8626 92.5608C47.424 61.0011 84.8157 37.5882 114.536 39.5432C164.584 42.8337 217.749 88.0342 229.922 136.734C240.419 178.716 218.641 217.135 182.631 220.161C170.418 221.187 158.637 215.45 136.195 197.542Z" fill="#FB9A44"/>
<path d="M113.413 130.409H111.259L106.733 117.727H108.869L112.323 128.195H112.375L115.838 117.727H117.939L113.413 130.409ZM121.753 122.526C120.426 122.526 119.495 123.536 119.398 124.934H124.021C123.977 123.519 123.081 122.526 121.753 122.526ZM124.012 127.694H125.814C125.55 129.381 123.951 130.585 121.833 130.585C119.117 130.585 117.473 128.748 117.473 125.83C117.473 122.93 119.143 120.996 121.753 120.996C124.32 120.996 125.919 122.807 125.919 125.611V126.261H119.389V126.375C119.389 127.984 120.356 129.047 121.876 129.047C122.958 129.047 123.757 128.502 124.012 127.694ZM127.396 130.409V121.163H129.207V122.737H129.25C129.558 121.656 130.384 121.014 131.474 121.014C131.747 121.014 131.984 121.058 132.125 121.084V122.851C131.975 122.789 131.641 122.745 131.272 122.745C130.05 122.745 129.294 123.563 129.294 124.872V130.409H127.396ZM138.224 130.568C136.871 130.568 135.825 129.908 135.253 128.836H135.218V130.409H133.373V117.727H135.271V122.737H135.315C135.869 121.664 136.923 121.014 138.233 121.014C140.562 121.014 142.083 122.86 142.083 125.786C142.083 128.722 140.571 130.568 138.224 130.568ZM137.714 122.614C136.273 122.614 135.262 123.879 135.262 125.786C135.262 127.711 136.273 128.959 137.714 128.959C139.208 128.959 140.131 127.746 140.131 125.786C140.131 123.844 139.208 122.614 137.714 122.614ZM147.435 122.526C146.108 122.526 145.176 123.536 145.08 124.934H149.703C149.659 123.519 148.762 122.526 147.435 122.526ZM149.694 127.694H151.496C151.232 129.381 149.632 130.585 147.514 130.585C144.798 130.585 143.155 128.748 143.155 125.83C143.155 122.93 144.825 120.996 147.435 120.996C150.001 120.996 151.601 122.807 151.601 125.611V126.261H145.071V126.375C145.071 127.984 146.038 129.047 147.558 129.047C148.639 129.047 149.439 128.502 149.694 127.694ZM153.078 130.409V121.163H154.888V122.71H154.932C155.433 121.656 156.417 121.005 157.841 121.005C159.88 121.005 161.049 122.306 161.049 124.424V130.409H159.142V124.793C159.142 123.405 158.492 122.64 157.173 122.64C155.837 122.64 154.976 123.589 154.976 125.022V130.409H153.078Z" fill="#FEFEFE"/>
</svg>
