<svg width="215" height="165" viewBox="0 0 215 165" fill="none" xmlns="http://www.w3.org/2000/svg">
<path d="M153.445 126.005C123.671 129.486 114.109 133.159 93.4698 149.043C62.8229 172.622 17.1028 172.729 4.02899 127.626C-6.02383 92.9362 3.66916 49.8972 25.9795 30.1646C63.5477 -3.06535 133.077 -9.00679 176.235 16.6294C213.442 38.7272 225.398 81.2404 202.198 108.946C194.33 118.343 181.962 122.672 153.445 126.005Z" fill="#FB9A44"/>
<path d="M54.3833 78.7205H52.23L47.7036 66.0378H49.8394L53.2935 76.5056H53.3462L56.8091 66.0378H58.9097L54.3833 78.7205ZM62.7241 70.8367C61.397 70.8367 60.4653 71.8474 60.3687 73.2449H64.9917C64.9478 71.8298 64.0513 70.8367 62.7241 70.8367ZM64.9829 76.0046H66.7847C66.521 77.6921 64.9214 78.8962 62.8032 78.8962C60.0874 78.8962 58.4438 77.0593 58.4438 74.1414C58.4438 71.241 60.1138 69.3074 62.7241 69.3074C65.2905 69.3074 66.8901 71.1179 66.8901 73.9216V74.572H60.3599V74.6863C60.3599 76.2947 61.3267 77.3582 62.8472 77.3582C63.9282 77.3582 64.728 76.8132 64.9829 76.0046ZM68.3667 78.7205V69.4744H70.1772V71.0476H70.2212C70.5288 69.9666 71.355 69.325 72.4448 69.325C72.7173 69.325 72.9546 69.3689 73.0952 69.3953V71.1619C72.9458 71.1003 72.6118 71.0564 72.2427 71.0564C71.021 71.0564 70.2651 71.8738 70.2651 73.1833V78.7205H68.3667ZM79.1948 78.8787C77.8413 78.8787 76.7954 78.2195 76.2241 77.1472H76.189V78.7205H74.3433V66.0378H76.2417V71.0476H76.2856C76.8394 69.9753 77.894 69.325 79.2036 69.325C81.5327 69.325 83.0532 71.1707 83.0532 74.0974C83.0532 77.033 81.5415 78.8787 79.1948 78.8787ZM78.6851 70.9246C77.2437 70.9246 76.2329 72.1902 76.2329 74.0974C76.2329 76.0222 77.2437 77.2703 78.6851 77.2703C80.1792 77.2703 81.1021 76.0574 81.1021 74.0974C81.1021 72.155 80.1792 70.9246 78.6851 70.9246ZM88.4058 70.8367C87.0786 70.8367 86.147 71.8474 86.0503 73.2449H90.6733C90.6294 71.8298 89.7329 70.8367 88.4058 70.8367ZM90.6646 76.0046H92.4663C92.2026 77.6921 90.603 78.8962 88.4849 78.8962C85.769 78.8962 84.1255 77.0593 84.1255 74.1414C84.1255 71.241 85.7954 69.3074 88.4058 69.3074C90.9722 69.3074 92.5718 71.1179 92.5718 73.9216V74.572H86.0415V74.6863C86.0415 76.2947 87.0083 77.3582 88.5288 77.3582C89.6099 77.3582 90.4097 76.8132 90.6646 76.0046ZM94.0483 78.7205V69.4744H95.8589V71.0212H95.9028C96.4038 69.9666 97.3882 69.3162 98.812 69.3162C100.851 69.3162 102.02 70.6169 102.02 72.7351V78.7205H100.113V73.1042C100.113 71.7156 99.4624 70.9509 98.144 70.9509C96.8081 70.9509 95.9468 71.9001 95.9468 73.3328V78.7205H94.0483ZM112.435 78.8787C111.082 78.8787 110.036 78.2195 109.464 77.1472H109.429V78.7205H107.583V66.0378H109.482V71.0476H109.526C110.08 69.9753 111.134 69.325 112.444 69.325C114.773 69.325 116.293 71.1707 116.293 74.0974C116.293 77.033 114.782 78.8787 112.435 78.8787ZM111.925 70.9246C110.484 70.9246 109.473 72.1902 109.473 74.0974C109.473 76.0222 110.484 77.2703 111.925 77.2703C113.419 77.2703 114.342 76.0574 114.342 74.0974C114.342 72.155 113.419 70.9246 111.925 70.9246ZM121.646 70.8367C120.319 70.8367 119.387 71.8474 119.291 73.2449H123.914C123.87 71.8298 122.973 70.8367 121.646 70.8367ZM123.905 76.0046H125.707C125.443 77.6921 123.843 78.8962 121.725 78.8962C119.009 78.8962 117.366 77.0593 117.366 74.1414C117.366 71.241 119.036 69.3074 121.646 69.3074C124.212 69.3074 125.812 71.1179 125.812 73.9216V74.572H119.282V74.6863C119.282 76.2947 120.249 77.3582 121.769 77.3582C122.85 77.3582 123.65 76.8132 123.905 76.0046ZM135.216 69.4744V78.7205H133.397V77.156H133.353C132.843 78.2634 131.903 78.8875 130.488 78.8875C128.475 78.8875 127.245 77.5779 127.245 75.4597V69.4744H129.143V75.0906C129.143 76.4968 129.811 77.2527 131.121 77.2527C132.492 77.2527 133.318 76.3035 133.318 74.8621V69.4744H135.216ZM141.035 77.1824C142.52 77.1824 143.496 75.9783 143.496 74.071C143.496 72.1726 142.52 70.9246 141.035 70.9246C139.576 70.9246 138.626 72.1462 138.626 74.071C138.626 76.0046 139.576 77.1824 141.035 77.1824ZM141.052 82.2009C138.873 82.2009 137.255 81.0408 137.018 79.4412H138.925C139.198 80.2146 140.042 80.7244 141.123 80.7244C142.608 80.7244 143.487 79.8806 143.487 78.615V77.0945H143.452C142.933 78.0964 141.843 78.7556 140.525 78.7556C138.205 78.7556 136.684 76.9451 136.684 74.0623C136.684 71.1531 138.196 69.325 140.569 69.325C141.878 69.325 142.951 69.9841 143.513 71.0564H143.548V69.4744H145.394V78.5535C145.394 80.7595 143.689 82.2009 141.052 82.2009ZM151.142 70.8367C149.815 70.8367 148.883 71.8474 148.787 73.2449H153.41C153.366 71.8298 152.469 70.8367 151.142 70.8367ZM153.401 76.0046H155.203C154.939 77.6921 153.339 78.8962 151.221 78.8962C148.505 78.8962 146.862 77.0593 146.862 74.1414C146.862 71.241 148.532 69.3074 151.142 69.3074C153.708 69.3074 155.308 71.1179 155.308 73.9216V74.572H148.778V74.6863C148.778 76.2947 149.745 77.3582 151.265 77.3582C152.346 77.3582 153.146 76.8132 153.401 76.0046ZM156.785 78.7205V69.4744H158.595V71.0212H158.639C159.14 69.9666 160.125 69.3162 161.548 69.3162C163.587 69.3162 164.756 70.6169 164.756 72.7351V78.7205H162.849V73.1042C162.849 71.7156 162.199 70.9509 160.88 70.9509C159.544 70.9509 158.683 71.9001 158.683 73.3328V78.7205H156.785Z" fill="#FEFEFE"/>
</svg>
