<svg width="24" height="24" viewBox="0 0 24 24" fill="none" xmlns="http://www.w3.org/2000/svg">
<circle cx="12" cy="12" r="12" fill="#FB9A44"/>
<path d="M15.9999 12.6653H12.6666V15.9986C12.6666 16.1754 12.5963 16.345 12.4713 16.47C12.3463 16.5951 12.1767 16.6653 11.9999 16.6653C11.8231 16.6653 11.6535 16.5951 11.5285 16.47C11.4035 16.345 11.3333 16.1754 11.3333 15.9986V12.6653H7.99992C7.82311 12.6653 7.65354 12.5951 7.52851 12.47C7.40349 12.345 7.33325 12.1754 7.33325 11.9986C7.33325 11.8218 7.40349 11.6523 7.52851 11.5272C7.65354 11.4022 7.82311 11.332 7.99992 11.332H11.3333V7.99864C11.3333 7.82183 11.4035 7.65226 11.5285 7.52723C11.6535 7.40221 11.8231 7.33197 11.9999 7.33197C12.1767 7.33197 12.3463 7.40221 12.4713 7.52723C12.5963 7.65226 12.6666 7.82183 12.6666 7.99864V11.332H15.9999C16.1767 11.332 16.3463 11.4022 16.4713 11.5272C16.5963 11.6523 16.6666 11.8218 16.6666 11.9986C16.6666 12.1754 16.5963 12.345 16.4713 12.47C16.3463 12.5951 16.1767 12.6653 15.9999 12.6653Z" fill="#FEFEFE"/>
</svg>

