<svg width="16" height="16" viewBox="0 0 16 16" fill="none" xmlns="http://www.w3.org/2000/svg">
<path d="M2.66333 11.4714V13.0001C2.66333 13.0885 2.69845 13.1733 2.76096 13.2358C2.82347 13.2983 2.90826 13.3334 2.99666 13.3334H4.52866C4.6169 13.3334 4.70153 13.2984 4.764 13.2361L11.0627 6.9374L9.06266 4.9374L2.76133 11.2361C2.69877 11.2984 2.66353 11.3831 2.66333 11.4714ZM9.888 4.1114L11.888 6.1114L12.8613 5.13806C12.9863 5.01304 13.0565 4.8435 13.0565 4.66673C13.0565 4.48995 12.9863 4.32041 12.8613 4.1954L11.8047 3.13806C11.6796 3.01308 11.5101 2.94287 11.3333 2.94287C11.1566 2.94287 10.987 3.01308 10.862 3.13806L9.888 4.1114Z" fill="#202020"/>
</svg>


