<svg width="24" height="24" viewBox="0 0 24 24" fill="none" xmlns="http://www.w3.org/2000/svg">
<path d="M3.99512 17.207V19.5C3.99512 19.6326 4.0478 19.7598 4.14156 19.8535C4.23533 19.9473 4.36251 20 4.49512 20H6.79312C6.92547 19.9999 7.05241 19.9474 7.14612 19.854L16.5941 10.406L13.5941 7.40597L4.14212 16.854C4.04828 16.9475 3.99541 17.0745 3.99512 17.207ZM14.8321 6.16697L17.8321 9.16697L19.2921 7.70697C19.4796 7.51944 19.5849 7.26514 19.5849 6.99997C19.5849 6.73481 19.4796 6.4805 19.2921 6.29297L17.7071 4.70697C17.5196 4.5195 17.2653 4.41418 17.0001 4.41418C16.735 4.41418 16.4806 4.5195 16.2931 4.70697L14.8321 6.16697Z" fill="#FEFEFE"/>
</svg>
