<svg width="24" height="24" viewBox="0 0 24 24" fill="none" xmlns="http://www.w3.org/2000/svg">
<g clip-path="url(#clip0_394_2310)">
<path d="M22.8288 9.17116L18.9498 5.29216C18.7612 5.11001 18.5086 5.00921 18.2464 5.01149C17.9842 5.01377 17.7334 5.11894 17.548 5.30435C17.3625 5.48975 17.2574 5.74057 17.2551 6.00276C17.2528 6.26496 17.3536 6.51756 17.5358 6.70616L21.4148 10.5852C21.53 10.7027 21.6307 10.8336 21.7148 10.9752C21.6998 10.9752 21.6878 10.9672 21.6728 10.9672L5.98877 10.9992C5.72355 10.9992 5.4692 11.1045 5.28166 11.2921C5.09413 11.4796 4.98877 11.7339 4.98877 11.9992C4.98877 12.2644 5.09413 12.5187 5.28166 12.7063C5.4692 12.8938 5.72355 12.9992 5.98877 12.9992L21.6668 12.9672C21.6948 12.9672 21.7178 12.9532 21.7448 12.9512C21.6561 13.1203 21.5436 13.2759 21.4108 13.4132L17.5318 17.2922C17.4363 17.3844 17.3601 17.4948 17.3077 17.6168C17.2553 17.7388 17.2277 17.87 17.2265 18.0028C17.2254 18.1355 17.2507 18.2672 17.3009 18.3901C17.3512 18.513 17.4255 18.6247 17.5194 18.7186C17.6133 18.8125 17.7249 18.8867 17.8478 18.937C17.9707 18.9873 18.1024 19.0126 18.2352 19.0114C18.3679 19.0103 18.4992 18.9827 18.6212 18.9303C18.7432 18.8779 18.8535 18.8017 18.9458 18.7062L22.8248 14.8272C23.5747 14.0771 23.9959 13.0598 23.9959 11.9992C23.9959 10.9385 23.5747 9.92127 22.8248 9.17116H22.8288Z" fill="#202020"/>
<path d="M7 22H5C4.20435 22 3.44129 21.6839 2.87868 21.1213C2.31607 20.5587 2 19.7956 2 19V5C2 4.20435 2.31607 3.44129 2.87868 2.87868C3.44129 2.31607 4.20435 2 5 2H7C7.26522 2 7.51957 1.89464 7.70711 1.70711C7.89464 1.51957 8 1.26522 8 1C8 0.734784 7.89464 0.48043 7.70711 0.292893C7.51957 0.105357 7.26522 0 7 0L5 0C3.67441 0.00158786 2.40356 0.528882 1.46622 1.46622C0.528882 2.40356 0.00158786 3.67441 0 5L0 19C0.00158786 20.3256 0.528882 21.5964 1.46622 22.5338C2.40356 23.4711 3.67441 23.9984 5 24H7C7.26522 24 7.51957 23.8946 7.70711 23.7071C7.89464 23.5196 8 23.2652 8 23C8 22.7348 7.89464 22.4804 7.70711 22.2929C7.51957 22.1054 7.26522 22 7 22Z" fill="#202020"/>
</g>
<defs>
<clipPath id="clip0_394_2310">
<rect width="24" height="24" fill="#202020"/>
</clipPath>
</defs>
</svg>
